solid coin-bank
facet normal -0.9448822664693848 1.566988633892734e-14 0.3274102968931774
  outer loop
    vertex 948.2542874367753 204.1954724762345 170.14389068529732
    vertex 946.4727879724954 199.6440764762345 165.00261300559237
    vertex 948.2542874367755 199.64407647623446 170.14389068529732
  endloop
endfacet
facet normal -0.9448822664693848 1.566988633892734e-14 0.3274102968931774
  outer loop
    vertex 946.4727879724954 199.6440764762345 165.00261300559237
    vertex 948.2542874367753 204.1954724762345 170.14389068529732
    vertex 946.4727879724958 204.1954724762345 165.00261300559237
  endloop
endfacet
facet normal 1.6583956430338345e-14 1.0 4.737109735852183e-28
  outer loop
    vertex 968.7752855522336 204.19547247623407 133.8322960052577
    vertex 975.7517612040912 204.19547247623396 139.83099428137461
    vertex 975.7517612040915 204.19547247623396 131.71299428137453
  endloop
endfacet
facet normal 1.6583956430338345e-14 1.0 4.737109735852183e-28
  outer loop
    vertex 975.7517612040912 204.19547247623396 139.83099428137461
    vertex 968.7752855522336 204.19547247623407 133.8322960052577
    vertex 967.7771549983829 204.19547247623407 134.29307330518802
  endloop
endfacet
facet normal 1.6583956430338345e-14 1.0 4.737109735852183e-28
  outer loop
    vertex 975.7517612040912 204.19547247623396 139.83099428137461
    vertex 967.7771549983829 204.19547247623407 134.29307330518802
    vertex 963.7762037533589 204.1954724762342 136.14007368477195
  endloop
endfacet
facet normal 1.6583956430338345e-14 1.0 4.737109735852183e-28
  outer loop
    vertex 975.7517612040912 204.19547247623396 139.83099428137461
    vertex 963.7762037533589 204.1954724762342 136.14007368477195
    vertex 962.4338482633882 204.1954724762342 136.75975909148505
  endloop
endfacet
facet normal 1.6583956430338345e-14 1.0 4.737109735852183e-28
  outer loop
    vertex 975.7517612040912 204.19547247623396 139.83099428137461
    vertex 962.4338482633882 204.1954724762342 136.75975909148505
    vertex 956.9196668512357 204.19547247623427 140.40664818713964
  endloop
endfacet
facet normal 1.6583956430338345e-14 1.0 4.737109735852183e-28
  outer loop
    vertex 975.7517612040912 204.19547247623396 139.83099428137461
    vertex 956.9196668512357 204.19547247623427 140.40664818713964
    vertex 987.4416812040909 204.19547247623373 139.8309942813749
  endloop
endfacet
facet normal 1.6583956430338345e-14 1.0 4.737109735852183e-28
  outer loop
    vertex 987.4416812040909 204.19547247623373 139.8309942813749
    vertex 956.9196668512357 204.19547247623427 140.40664818713964
    vertex 989.3100044961601 204.19547247623373 143.98198442116632
  endloop
endfacet
facet normal 1.6583956430338345e-14 1.0 4.737109735852183e-28
  outer loop
    vertex 989.3100044961601 204.19547247623373 143.98198442116632
    vertex 956.9196668512357 204.19547247623427 140.40664818713964
    vertex 952.3998835885374 204.1954724762343 144.66242116703677
  endloop
endfacet
facet normal 1.6583956430338345e-14 1.0 4.737109735852183e-28
  outer loop
    vertex 989.3100044961601 204.19547247623373 143.98198442116632
    vertex 952.3998835885374 204.1954724762343 144.66242116703677
    vertex 990.396997338883 204.19547247623382 148.26500664456512
  endloop
endfacet
facet normal 1.6583956430338345e-14 1.0 4.737109735852183e-28
  outer loop
    vertex 990.396997338883 204.19547247623382 148.26500664456512
    vertex 952.3998835885374 204.1954724762343 144.66242116703677
    vertex 949.0114991995066 204.19547247623444 149.39807981456985
  endloop
endfacet
facet normal 1.6583956430338345e-14 1.0 4.737109735852183e-28
  outer loop
    vertex 990.396997338883 204.19547247623382 148.26500664456512
    vertex 949.0114991995066 204.19547247623444 149.39807981456985
    vertex 990.6847384545791 204.19547247623373 152.60944665904165
  endloop
endfacet
facet normal 1.6583956430338345e-14 1.0 4.737109735852183e-28
  outer loop
    vertex 990.6847384545791 204.19547247623373 152.60944665904165
    vertex 949.0114991995066 204.19547247623444 149.39807981456985
    vertex 946.8572201831576 204.19547247623444 154.4700799315697
  endloop
endfacet
facet normal 1.6583956430338345e-14 1.0 4.737109735852183e-28
  outer loop
    vertex 990.6847384545791 204.19547247623373 152.60944665904165
    vertex 946.8572201831576 204.19547247623444 154.4700799315697
    vertex 990.1684838484114 204.19547247623376 156.9436775754375
  endloop
endfacet
facet normal 1.6583956430338345e-14 1.0 4.737109735852183e-28
  outer loop
    vertex 990.1684838484114 204.19547247623376 156.9436775754375
    vertex 946.8572201831576 204.19547247623444 154.4700799315697
    vertex 946.0023456408506 204.19547247623444 159.72468235647582
  endloop
endfacet
facet normal 1.6583956430338345e-14 1.0 4.737109735852183e-28
  outer loop
    vertex 990.1684838484114 204.19547247623376 156.9436775754375
    vertex 946.0023456408506 204.19547247623444 159.72468235647582
    vertex 988.856745022744 204.19547247623382 161.19624082224504
  endloop
endfacet
facet normal 1.6583956430338345e-14 1.0 4.737109735852183e-28
  outer loop
    vertex 988.856745022744 204.19547247623382 161.19624082224504
    vertex 946.0023456408506 204.19547247623444 159.72468235647582
    vertex 946.4727879724958 204.1954724762345 165.00261300559237
  endloop
endfacet
facet normal 1.6583956430338345e-14 1.0 4.737109735852183e-28
  outer loop
    vertex 988.856745022744 204.19547247623382 161.19624082224504
    vertex 946.4727879724958 204.1954724762345 165.00261300559237
    vertex 986.771148647794 204.19547247623376 165.29702428482935
  endloop
endfacet
facet normal 1.6583956430338345e-14 1.0 4.737109735852183e-28
  outer loop
    vertex 986.771148647794 204.19547247623376 165.29702428482935
    vertex 946.4727879724958 204.1954724762345 165.00261300559237
    vertex 948.2542874367753 204.1954724762345 170.14389068529732
  endloop
endfacet
facet normal 1.6583956430338345e-14 1.0 4.737109735852183e-28
  outer loop
    vertex 986.771148647794 204.19547247623376 165.29702428482935
    vertex 948.2542874367753 204.1954724762345 170.14389068529732
    vertex 983.9460800021885 204.19547247623382 169.1784182455839
  endloop
endfacet
facet normal 1.6583956430338345e-14 1.0 4.737109735852183e-28
  outer loop
    vertex 983.9460800021885 204.19547247623382 169.1784182455839
    vertex 948.2542874367753 204.1954724762345 170.14389068529732
    vertex 980.4281160620332 204.1954724762339 172.77643006700401
  endloop
endfacet
facet normal 1.6583956430338345e-14 1.0 4.737109735852183e-28
  outer loop
    vertex 980.4281160620332 204.1954724762339 172.77643006700401
    vertex 948.2542874367753 204.1954724762345 170.14389068529732
    vertex 951.2928443831291 204.19547247623436 174.9926763377052
  endloop
endfacet
facet normal 1.6583956430338345e-14 1.0 4.737109735852183e-28
  outer loop
    vertex 980.4281160620332 204.1954724762339 172.77643006700401
    vertex 951.2928443831291 204.19547247623436 174.9926763377052
    vertex 976.2752575851617 204.19547247623396 176.03173923987217
  endloop
endfacet
facet normal 1.6583956430338345e-14 1.0 4.737109735852183e-28
  outer loop
    vertex 976.2752575851617 204.19547247623396 176.03173923987217
    vertex 951.2928443831291 204.19547247623436 174.9926763377052
    vertex 955.496356053965 204.1954724762343 179.40199673261242
  endloop
endfacet
facet normal 1.6583956430338345e-14 1.0 4.737109735852183e-28
  outer loop
    vertex 976.2752575851617 204.19547247623396 176.03173923987217
    vertex 955.496356053965 204.1954724762343 179.40199673261242
    vertex 971.5559728512195 204.19547247623413 178.89067540194964
  endloop
endfacet
facet normal 1.6583956430338345e-14 1.0 4.737109735852183e-28
  outer loop
    vertex 971.5559728512195 204.19547247623413 178.89067540194964
    vertex 955.496356053965 204.1954724762343 179.40199673261242
    vertex 966.348068823456 204.19547247623413 181.30610320255582
  endloop
endfacet
facet normal 1.6583956430338345e-14 1.0 4.737109735852183e-28
  outer loop
    vertex 966.348068823456 204.19547247623413 181.30610320255582
    vertex 955.496356053965 204.1954724762343 179.40199673261242
    vertex 960.7374083434113 204.1954724762342 183.23819942425246
  endloop
endfacet
facet normal -1.6583956430338345e-14 -1.0 -4.737109735852183e-28
  outer loop
    vertex 975.7517612040909 199.64407647623398 139.83099428137461
    vertex 968.7752855522331 199.64407647623412 133.8322960052577
    vertex 975.7517612040913 199.64407647623398 131.71299428137453
  endloop
endfacet
facet normal -1.6583956430338345e-14 -1.0 -4.737109735852183e-28
  outer loop
    vertex 968.7752855522331 199.64407647623412 133.8322960052577
    vertex 975.7517612040909 199.64407647623398 139.83099428137461
    vertex 967.7771549983831 199.64407647623412 134.29307330518802
  endloop
endfacet
facet normal -1.6583956430338345e-14 -1.0 -4.737109735852183e-28
  outer loop
    vertex 967.7771549983831 199.64407647623412 134.29307330518802
    vertex 975.7517612040909 199.64407647623398 139.83099428137461
    vertex 963.7762037533587 199.6440764762342 136.14007368477195
  endloop
endfacet
facet normal -1.6583956430338345e-14 -1.0 -4.737109735852183e-28
  outer loop
    vertex 963.7762037533587 199.6440764762342 136.14007368477195
    vertex 975.7517612040909 199.64407647623398 139.83099428137461
    vertex 962.4338482633881 199.64407647623412 136.75975909148505
  endloop
endfacet
facet normal -1.6583956430338345e-14 -1.0 -4.737109735852183e-28
  outer loop
    vertex 962.4338482633881 199.64407647623412 136.75975909148505
    vertex 975.7517612040909 199.64407647623398 139.83099428137461
    vertex 956.9196668512359 199.64407647623432 140.40664818713964
  endloop
endfacet
facet normal -1.6583956430338345e-14 -1.0 -4.737109735852183e-28
  outer loop
    vertex 956.9196668512359 199.64407647623432 140.40664818713964
    vertex 975.7517612040909 199.64407647623398 139.83099428137461
    vertex 987.4416812040911 199.64407647623383 139.8309942813749
  endloop
endfacet
facet normal -1.6583956430338345e-14 -1.0 -4.737109735852183e-28
  outer loop
    vertex 956.9196668512359 199.64407647623432 140.40664818713964
    vertex 987.4416812040911 199.64407647623383 139.8309942813749
    vertex 989.3100044961604 199.64407647623383 143.98198442116632
  endloop
endfacet
facet normal -1.6583956430338345e-14 -1.0 -4.737109735852183e-28
  outer loop
    vertex 956.9196668512359 199.64407647623432 140.40664818713964
    vertex 989.3100044961604 199.64407647623383 143.98198442116632
    vertex 952.3998835885374 199.64407647623435 144.66242116703677
  endloop
endfacet
facet normal -1.6583956430338345e-14 -1.0 -4.737109735852183e-28
  outer loop
    vertex 952.3998835885374 199.64407647623435 144.66242116703677
    vertex 989.3100044961604 199.64407647623383 143.98198442116632
    vertex 990.3969973388829 199.64407647623375 148.26500664456512
  endloop
endfacet
facet normal -1.6583956430338345e-14 -1.0 -4.737109735852183e-28
  outer loop
    vertex 952.3998835885374 199.64407647623435 144.66242116703677
    vertex 990.3969973388829 199.64407647623375 148.26500664456512
    vertex 949.0114991995068 199.64407647623435 149.39807981456985
  endloop
endfacet
facet normal -1.6583956430338345e-14 -1.0 -4.737109735852183e-28
  outer loop
    vertex 949.0114991995068 199.64407647623435 149.39807981456985
    vertex 990.3969973388829 199.64407647623375 148.26500664456512
    vertex 990.6847384545791 199.64407647623375 152.60944665904165
  endloop
endfacet
facet normal -1.6583956430338345e-14 -1.0 -4.737109735852183e-28
  outer loop
    vertex 949.0114991995068 199.64407647623435 149.39807981456985
    vertex 990.6847384545791 199.64407647623375 152.60944665904165
    vertex 946.8572201831577 199.64407647623446 154.4700799315697
  endloop
endfacet
facet normal -1.6583956430338345e-14 -1.0 -4.737109735852183e-28
  outer loop
    vertex 946.8572201831577 199.64407647623446 154.4700799315697
    vertex 990.6847384545791 199.64407647623375 152.60944665904165
    vertex 990.1684838484114 199.64407647623372 156.9436775754375
  endloop
endfacet
facet normal -1.6583956430338345e-14 -1.0 -4.737109735852183e-28
  outer loop
    vertex 946.8572201831577 199.64407647623446 154.4700799315697
    vertex 990.1684838484114 199.64407647623372 156.9436775754375
    vertex 946.0023456408505 199.64407647623443 159.72468235647582
  endloop
endfacet
facet normal -1.6583956430338345e-14 -1.0 -4.737109735852183e-28
  outer loop
    vertex 946.0023456408505 199.64407647623443 159.72468235647582
    vertex 990.1684838484114 199.64407647623372 156.9436775754375
    vertex 988.8567450227443 199.64407647623383 161.19624082224504
  endloop
endfacet
facet normal -1.6583956430338345e-14 -1.0 -4.737109735852183e-28
  outer loop
    vertex 946.0023456408505 199.64407647623443 159.72468235647582
    vertex 988.8567450227443 199.64407647623383 161.19624082224504
    vertex 946.4727879724954 199.6440764762345 165.00261300559237
  endloop
endfacet
facet normal -1.6583956430338345e-14 -1.0 -4.737109735852183e-28
  outer loop
    vertex 946.4727879724954 199.6440764762345 165.00261300559237
    vertex 988.8567450227443 199.64407647623383 161.19624082224504
    vertex 986.771148647794 199.6440764762338 165.29702428482935
  endloop
endfacet
facet normal -1.6583956430338345e-14 -1.0 -4.737109735852183e-28
  outer loop
    vertex 946.4727879724954 199.6440764762345 165.00261300559237
    vertex 986.771148647794 199.6440764762338 165.29702428482935
    vertex 948.2542874367755 199.64407647623446 170.14389068529732
  endloop
endfacet
facet normal -1.6583956430338345e-14 -1.0 -4.737109735852183e-28
  outer loop
    vertex 948.2542874367755 199.64407647623446 170.14389068529732
    vertex 986.771148647794 199.6440764762338 165.29702428482935
    vertex 983.9460800021886 199.64407647623386 169.1784182455839
  endloop
endfacet
facet normal -1.6583956430338345e-14 -1.0 -4.737109735852183e-28
  outer loop
    vertex 948.2542874367755 199.64407647623446 170.14389068529732
    vertex 983.9460800021886 199.64407647623386 169.1784182455839
    vertex 980.4281160620332 199.64407647623395 172.77643006700401
  endloop
endfacet
facet normal -1.6583956430338345e-14 -1.0 -4.737109735852183e-28
  outer loop
    vertex 948.2542874367755 199.64407647623446 170.14389068529732
    vertex 980.4281160620332 199.64407647623395 172.77643006700401
    vertex 951.2928443831291 199.6440764762344 174.9926763377052
  endloop
endfacet
facet normal -1.6583956430338345e-14 -1.0 -4.737109735852183e-28
  outer loop
    vertex 951.2928443831291 199.6440764762344 174.9926763377052
    vertex 980.4281160620332 199.64407647623395 172.77643006700401
    vertex 976.2752575851616 199.64407647623392 176.03173923987217
  endloop
endfacet
facet normal -1.6583956430338345e-14 -1.0 -4.737109735852183e-28
  outer loop
    vertex 951.2928443831291 199.6440764762344 174.9926763377052
    vertex 976.2752575851616 199.64407647623392 176.03173923987217
    vertex 955.4963560539646 199.64407647623435 179.40199673261242
  endloop
endfacet
facet normal -1.6583956430338345e-14 -1.0 -4.737109735852183e-28
  outer loop
    vertex 955.4963560539646 199.64407647623435 179.40199673261242
    vertex 976.2752575851616 199.64407647623392 176.03173923987217
    vertex 971.5559728512195 199.6440764762341 178.89067540194964
  endloop
endfacet
facet normal -1.6583956430338345e-14 -1.0 -4.737109735852183e-28
  outer loop
    vertex 955.4963560539646 199.64407647623435 179.40199673261242
    vertex 971.5559728512195 199.6440764762341 178.89067540194964
    vertex 966.3480688234558 199.64407647623415 181.30610320255582
  endloop
endfacet
facet normal -1.6583956430338345e-14 -1.0 -4.737109735852183e-28
  outer loop
    vertex 955.4963560539646 199.64407647623435 179.40199673261242
    vertex 966.3480688234558 199.64407647623415 181.30610320255582
    vertex 960.7374083434113 199.64407647623423 183.23819942425246
  endloop
endfacet
facet normal 1.0 -1.6583956430338197e-14 2.4173507640057274e-14
  outer loop
    vertex 975.7517612040915 204.19547247623396 131.71299428137453
    vertex 975.7517612040909 199.64407647623398 139.83099428137461
    vertex 975.7517612040913 199.64407647623398 131.71299428137453
  endloop
endfacet
facet normal 1.0 -1.6583956430338197e-14 2.4173507640057274e-14
  outer loop
    vertex 975.7517612040909 199.64407647623398 139.83099428137461
    vertex 975.7517612040915 204.19547247623396 131.71299428137453
    vertex 975.7517612040912 204.19547247623396 139.83099428137461
  endloop
endfacet
facet normal -0.2906628123900808 4.820339416597137e-15 -0.9568255480982356
  outer loop
    vertex 968.7752855522336 204.19547247623407 133.8322960052577
    vertex 975.7517612040913 199.64407647623398 131.71299428137453
    vertex 968.7752855522331 199.64407647623412 133.8322960052577
  endloop
endfacet
facet normal -0.2906628123900808 4.820339416597137e-15 -0.9568255480982356
  outer loop
    vertex 975.7517612040913 199.64407647623398 131.71299428137453
    vertex 968.7752855522336 204.19547247623407 133.8322960052577
    vertex 975.7517612040915 204.19547247623396 131.71299428137453
  endloop
endfacet
facet normal -0.4191344091359996 6.9509067795673995e-15 -0.9079241967687702
  outer loop
    vertex 968.7752855522336 204.19547247623407 133.8322960052577
    vertex 967.7771549983831 199.64407647623412 134.29307330518802
    vertex 967.7771549983829 204.19547247623407 134.29307330518802
  endloop
endfacet
facet normal -0.4191344091359996 6.9509067795673995e-15 -0.9079241967687702
  outer loop
    vertex 967.7771549983831 199.64407647623412 134.29307330518802
    vertex 968.7752855522336 204.19547247623407 133.8322960052577
    vertex 968.7752855522331 199.64407647623412 133.8322960052577
  endloop
endfacet
facet normal -0.4191344091360036 6.9509067795674516e-15 -0.9079241967687686
  outer loop
    vertex 963.7762037533589 204.1954724762342 136.14007368477195
    vertex 967.7771549983831 199.64407647623412 134.29307330518802
    vertex 963.7762037533587 199.6440764762342 136.14007368477195
  endloop
endfacet
facet normal -0.4191344091360036 6.9509067795674516e-15 -0.9079241967687686
  outer loop
    vertex 967.7771549983831 199.64407647623412 134.29307330518802
    vertex 963.7762037533589 204.1954724762342 136.14007368477195
    vertex 967.7771549983829 204.19547247623407 134.29307330518802
  endloop
endfacet
facet normal -0.41913440913599775 6.950906779567366e-15 -0.9079241967687711
  outer loop
    vertex 962.4338482633882 204.1954724762342 136.75975909148505
    vertex 963.7762037533587 199.6440764762342 136.14007368477195
    vertex 962.4338482633881 199.64407647623412 136.75975909148505
  endloop
endfacet
facet normal -0.41913440913599775 6.950906779567366e-15 -0.9079241967687711
  outer loop
    vertex 963.7762037533587 199.6440764762342 136.14007368477195
    vertex 962.4338482633882 204.1954724762342 136.75975909148505
    vertex 963.7762037533589 204.1954724762342 136.14007368477195
  endloop
endfacet
facet normal -0.5516352902660653 9.148295619209795e-15 -0.8340854311957944
  outer loop
    vertex 962.4338482633882 204.1954724762342 136.75975909148505
    vertex 956.9196668512359 199.64407647623432 140.40664818713964
    vertex 956.9196668512357 204.19547247623427 140.40664818713964
  endloop
endfacet
facet normal -0.5516352902660653 9.148295619209795e-15 -0.8340854311957944
  outer loop
    vertex 956.9196668512359 199.64407647623432 140.40664818713964
    vertex 962.4338482633882 204.1954724762342 136.75975909148505
    vertex 962.4338482633881 199.64407647623412 136.75975909148505
  endloop
endfacet
facet normal -0.6855235006539161 1.1368691866817838e-14 -0.72805049965727
  outer loop
    vertex 956.9196668512357 204.19547247623427 140.40664818713964
    vertex 952.3998835885374 199.64407647623435 144.66242116703677
    vertex 952.3998835885374 204.1954724762343 144.66242116703677
  endloop
endfacet
facet normal -0.6855235006539161 1.1368691866817838e-14 -0.72805049965727
  outer loop
    vertex 952.3998835885374 199.64407647623435 144.66242116703677
    vertex 956.9196668512357 204.19547247623427 140.40664818713964
    vertex 956.9196668512359 199.64407647623432 140.40664818713964
  endloop
endfacet
facet normal -0.813264453625529 1.348714226526886e-14 -0.5818942588384678
  outer loop
    vertex 949.0114991995068 199.64407647623435 149.39807981456985
    vertex 952.3998835885374 204.1954724762343 144.66242116703677
    vertex 952.3998835885374 199.64407647623435 144.66242116703677
  endloop
endfacet
facet normal -0.813264453625529 1.348714226526886e-14 -0.5818942588384678
  outer loop
    vertex 952.3998835885374 204.1954724762343 144.66242116703677
    vertex 949.0114991995068 199.64407647623435 149.39807981456985
    vertex 949.0114991995066 204.19547247623444 149.39807981456985
  endloop
endfacet
facet normal -0.9204171931610639 1.5264158629117438e-14 -0.39093757881982805
  outer loop
    vertex 946.8572201831577 199.64407647623446 154.4700799315697
    vertex 949.0114991995066 204.19547247623444 149.39807981456985
    vertex 949.0114991995068 199.64407647623435 149.39807981456985
  endloop
endfacet
facet normal -0.9204171931610639 1.5264158629117438e-14 -0.39093757881982805
  outer loop
    vertex 949.0114991995066 204.19547247623444 149.39807981456985
    vertex 946.8572201831577 199.64407647623446 154.4700799315697
    vertex 946.8572201831576 204.19547247623444 154.4700799315697
  endloop
endfacet
facet normal -0.9870229299212218 1.636874526555842e-14 -0.1605793754182871
  outer loop
    vertex 946.0023456408506 204.19547247623444 159.72468235647582
    vertex 946.8572201831577 199.64407647623446 154.4700799315697
    vertex 946.0023456408505 199.64407647623443 159.72468235647582
  endloop
endfacet
facet normal -0.9870229299212218 1.636874526555842e-14 -0.1605793754182871
  outer loop
    vertex 946.8572201831577 199.64407647623446 154.4700799315697
    vertex 946.0023456408506 204.19547247623444 159.72468235647582
    vertex 946.8572201831576 204.19547247623444 154.4700799315697
  endloop
endfacet
facet normal -0.9960510920784709 1.6518467913420155e-14 0.08878187860867588
  outer loop
    vertex 946.4727879724954 199.6440764762345 165.00261300559237
    vertex 946.0023456408506 204.19547247623444 159.72468235647582
    vertex 946.0023456408505 199.64407647623443 159.72468235647582
  endloop
endfacet
facet normal -0.9960510920784709 1.6518467913420155e-14 0.08878187860867588
  outer loop
    vertex 946.0023456408506 204.19547247623444 159.72468235647582
    vertex 946.4727879724954 199.6440764762345 165.00261300559237
    vertex 946.4727879724958 204.1954724762345 165.00261300559237
  endloop
endfacet
facet normal 0.6169246339915246 -1.0231051250918172e-14 0.7870222334689303
  outer loop
    vertex 980.4281160620332 199.64407647623395 172.77643006700401
    vertex 976.2752575851617 204.19547247623396 176.03173923987217
    vertex 976.2752575851616 199.64407647623392 176.03173923987217
  endloop
endfacet
facet normal 0.6169246339915246 -1.0231051250918172e-14 0.7870222334689303
  outer loop
    vertex 976.2752575851617 204.19547247623396 176.03173923987217
    vertex 980.4281160620332 199.64407647623395 172.77643006700401
    vertex 980.4281160620332 204.1954724762339 172.77643006700401
  endloop
endfacet
facet normal 0.8913454122430149 -1.478203348102025e-14 0.4533247799021468
  outer loop
    vertex 988.8567450227443 199.64407647623383 161.19624082224504
    vertex 986.771148647794 204.19547247623376 165.29702428482935
    vertex 986.771148647794 199.6440764762338 165.29702428482935
  endloop
endfacet
facet normal 0.8913454122430149 -1.478203348102025e-14 0.4533247799021468
  outer loop
    vertex 986.771148647794 204.19547247623376 165.29702428482935
    vertex 988.8567450227443 199.64407647623383 161.19624082224504
    vertex 988.856745022744 204.19547247623382 161.19624082224504
  endloop
endfacet
facet normal 0.9929808838273356 -1.6467551713551324e-14 0.11827495235037497
  outer loop
    vertex 990.6847384545791 199.64407647623375 152.60944665904165
    vertex 990.1684838484114 204.19547247623376 156.9436775754375
    vertex 990.1684838484114 199.64407647623372 156.9436775754375
  endloop
endfacet
facet normal 0.9929808838273356 -1.6467551713551324e-14 0.11827495235037497
  outer loop
    vertex 990.1684838484114 204.19547247623376 156.9436775754375
    vertex 990.6847384545791 199.64407647623375 152.60944665904165
    vertex 990.6847384545791 204.19547247623373 152.60944665904165
  endloop
endfacet
facet normal 0.9555730092143002 -1.5847181150817308e-14 0.29475451491220167
  outer loop
    vertex 990.1684838484114 204.19547247623376 156.9436775754375
    vertex 988.8567450227443 199.64407647623383 161.19624082224504
    vertex 990.1684838484114 199.64407647623372 156.9436775754375
  endloop
endfacet
facet normal 0.9555730092143002 -1.5847181150817308e-14 0.29475451491220167
  outer loop
    vertex 988.8567450227443 199.64407647623383 161.19624082224504
    vertex 990.1684838484114 204.19547247623376 156.9436775754375
    vertex 988.856745022744 204.19547247623382 161.19624082224504
  endloop
endfacet
facet normal 0.911890449896895 -1.512275149033144e-14 -0.4104336820813301
  outer loop
    vertex 987.4416812040909 204.19547247623373 139.8309942813749
    vertex 989.3100044961604 199.64407647623383 143.98198442116632
    vertex 987.4416812040911 199.64407647623383 139.8309942813749
  endloop
endfacet
facet normal 0.911890449896895 -1.512275149033144e-14 -0.4104336820813301
  outer loop
    vertex 989.3100044961604 199.64407647623383 143.98198442116632
    vertex 987.4416812040909 204.19547247623373 139.8309942813749
    vertex 989.3100044961601 204.19547247623373 143.98198442116632
  endloop
endfacet
facet normal 0.9978138484194802 -1.6547701387776714e-14 -0.06608724462637745
  outer loop
    vertex 990.396997338883 204.19547247623382 148.26500664456512
    vertex 990.6847384545791 199.64407647623375 152.60944665904165
    vertex 990.3969973388829 199.64407647623375 148.26500664456512
  endloop
endfacet
facet normal 0.9978138484194802 -1.6547701387776714e-14 -0.06608724462637745
  outer loop
    vertex 990.6847384545791 199.64407647623375 152.60944665904165
    vertex 990.396997338883 204.19547247623382 148.26500664456512
    vertex 990.6847384545791 204.19547247623373 152.60944665904165
  endloop
endfacet
facet normal 2.8504976157250926e-14 9.856909455406967e-31 -1.0
  outer loop
    vertex 975.7517612040912 204.19547247623396 139.83099428137461
    vertex 987.4416812040911 199.64407647623383 139.8309942813749
    vertex 975.7517612040909 199.64407647623398 139.83099428137461
  endloop
endfacet
facet normal 2.8504976157250926e-14 9.856909455406967e-31 -1.0
  outer loop
    vertex 987.4416812040911 199.64407647623383 139.8309942813749
    vertex 975.7517612040912 204.19547247623396 139.83099428137461
    vertex 987.4416812040909 204.19547247623373 139.8309942813749
  endloop
endfacet
facet normal 0.9692717266839972 -1.607436008448599e-14 -0.24599251990868062
  outer loop
    vertex 989.3100044961604 199.64407647623383 143.98198442116632
    vertex 990.396997338883 204.19547247623382 148.26500664456512
    vertex 990.3969973388829 199.64407647623375 148.26500664456512
  endloop
endfacet
facet normal 0.9692717266839972 -1.607436008448599e-14 -0.24599251990868062
  outer loop
    vertex 990.396997338883 204.19547247623382 148.26500664456512
    vertex 989.3100044961604 199.64407647623383 143.98198442116632
    vertex 989.3100044961601 204.19547247623373 143.98198442116632
  endloop
endfacet
facet normal 0.8085144044696185 -1.3408367657025261e-14 0.5884763867523812
  outer loop
    vertex 986.771148647794 204.19547247623376 165.29702428482935
    vertex 983.9460800021886 199.64407647623386 169.1784182455839
    vertex 986.771148647794 199.6440764762338 165.29702428482935
  endloop
endfacet
facet normal 0.8085144044696185 -1.3408367657025261e-14 0.5884763867523812
  outer loop
    vertex 983.9460800021886 199.64407647623386 169.1784182455839
    vertex 986.771148647794 204.19547247623376 165.29702428482935
    vertex 983.9460800021885 204.19547247623382 169.1784182455839
  endloop
endfacet
facet normal 0.7150158142650698 -1.1857791110775046e-14 0.6991082787028483
  outer loop
    vertex 983.9460800021885 204.19547247623382 169.1784182455839
    vertex 980.4281160620332 199.64407647623395 172.77643006700401
    vertex 983.9460800021886 199.64407647623386 169.1784182455839
  endloop
endfacet
facet normal 0.7150158142650698 -1.1857791110775046e-14 0.6991082787028483
  outer loop
    vertex 980.4281160620332 199.64407647623395 172.77643006700401
    vertex 983.9460800021885 204.19547247623382 169.1784182455839
    vertex 980.4281160620332 204.1954724762339 172.77643006700401
  endloop
endfacet
facet normal 0.5181378233886115 -8.592775087987389e-15 0.8552971389956312
  outer loop
    vertex 976.2752575851616 199.64407647623392 176.03173923987217
    vertex 971.5559728512195 204.19547247623413 178.89067540194964
    vertex 971.5559728512195 199.6440764762341 178.89067540194964
  endloop
endfacet
facet normal 0.5181378233886115 -8.592775087987389e-15 0.8552971389956312
  outer loop
    vertex 971.5559728512195 204.19547247623413 178.89067540194964
    vertex 976.2752575851616 199.64407647623392 176.03173923987217
    vertex 976.2752575851617 204.19547247623396 176.03173923987217
  endloop
endfacet
facet normal 0.42074905688408093 -6.977684027471918e-15 0.9071770671325177
  outer loop
    vertex 971.5559728512195 199.6440764762341 178.89067540194964
    vertex 966.348068823456 204.19547247623413 181.30610320255582
    vertex 966.3480688234558 199.64407647623415 181.30610320255582
  endloop
endfacet
facet normal 0.42074905688408093 -6.977684027471918e-15 0.9071770671325177
  outer loop
    vertex 966.348068823456 204.19547247623413 181.30610320255582
    vertex 971.5559728512195 199.6440764762341 178.89067540194964
    vertex 971.5559728512195 204.19547247623413 178.89067540194964
  endloop
endfacet
facet normal 0.32559691331987783 -5.3996850243498935e-15 0.9455086726395311
  outer loop
    vertex 966.3480688234558 199.64407647623415 181.30610320255582
    vertex 960.7374083434113 204.1954724762342 183.23819942425246
    vertex 960.7374083434113 199.64407647623423 183.23819942425246
  endloop
endfacet
facet normal 0.32559691331987783 -5.3996850243498935e-15 0.9455086726395311
  outer loop
    vertex 960.7374083434113 204.1954724762342 183.23819942425246
    vertex 966.3480688234558 199.64407647623415 181.30610320255582
    vertex 966.348068823456 204.19547247623413 181.30610320255582
  endloop
endfacet
facet normal -0.5906389810819623 9.79513112832225e-15 0.8069359293193364
  outer loop
    vertex 960.7374083434113 199.64407647623423 183.23819942425246
    vertex 955.496356053965 204.1954724762343 179.40199673261242
    vertex 955.4963560539646 199.64407647623435 179.40199673261242
  endloop
endfacet
facet normal -0.5906389810819623 9.79513112832225e-15 0.8069359293193364
  outer loop
    vertex 955.496356053965 204.1954724762343 179.40199673261242
    vertex 960.7374083434113 199.64407647623423 183.23819942425246
    vertex 960.7374083434113 204.1954724762342 183.23819942425246
  endloop
endfacet
facet normal -0.7237969022971229 1.2003416292108939e-14 0.6900130754015384
  outer loop
    vertex 955.496356053965 204.1954724762343 179.40199673261242
    vertex 951.2928443831291 199.6440764762344 174.9926763377052
    vertex 955.4963560539646 199.64407647623435 179.40199673261242
  endloop
endfacet
facet normal -0.7237969022971229 1.2003416292108939e-14 0.6900130754015384
  outer loop
    vertex 951.2928443831291 199.6440764762344 174.9926763377052
    vertex 955.496356053965 204.1954724762343 179.40199673261242
    vertex 951.2928443831291 204.19547247623436 174.9926763377052
  endloop
endfacet
facet normal -0.847364177706858 1.405265060371961e-14 0.5310121941529974
  outer loop
    vertex 951.2928443831291 204.19547247623436 174.9926763377052
    vertex 948.2542874367755 199.64407647623446 170.14389068529732
    vertex 951.2928443831291 199.6440764762344 174.9926763377052
  endloop
endfacet
facet normal -0.847364177706858 1.405265060371961e-14 0.5310121941529974
  outer loop
    vertex 948.2542874367755 199.64407647623446 170.14389068529732
    vertex 951.2928443831291 204.19547247623436 174.9926763377052
    vertex 948.2542874367753 204.1954724762345 170.14389068529732
  endloop
endfacet
endsolid coin-bank
