solid coin-bank
facet normal 0.7933533402912489 -0.6087614290087028 6.6312755068093e-16
  outer loop
    vertex 1082.9780059572427 196.02913778617233 -75.3203995529213
    vertex 1080.5942266182744 192.9225360683741 -45.32039955292129
    vertex 1080.5942266182744 192.92253606837406 -75.32039955292129
  endloop
endfacet
facet normal 0.7933533402912489 -0.6087614290087028 6.6312755068093e-16
  outer loop
    vertex 1080.5942266182744 192.9225360683741 -45.32039955292129
    vertex 1082.9780059572427 196.02913778617233 -75.3203995529213
    vertex 1082.9780059572427 196.02913778617236 -45.32039955292129
  endloop
endfacet
facet normal 0.9238795325112901 -0.38268343236508173 5.414413778499613e-16
  outer loop
    vertex 1084.476512294812 199.64685210963455 -75.3203995529213
    vertex 1082.9780059572427 196.02913778617236 -45.32039955292129
    vertex 1082.9780059572427 196.02913778617233 -75.3203995529213
  endloop
endfacet
facet normal 0.9238795325112901 -0.38268343236508173 5.414413778499613e-16
  outer loop
    vertex 1082.9780059572427 196.02913778617236 -45.32039955292129
    vertex 1084.476512294812 199.64685210963455 -75.3203995529213
    vertex 1084.476512294812 199.64685210963455 -45.32039955292129
  endloop
endfacet
facet normal -0.6087614290087245 0.7933533402912324 -7.396226768030963e-16
  outer loop
    vertex 1059.3810231826776 214.13573950397017 -60.32039955292132
    vertex 1062.4876249004758 216.5195188429386 -70.32039955292132
    vertex 1059.3810231826776 214.13573950397017 -70.32039955292132
  endloop
endfacet
facet normal -0.6087614290087245 0.7933533402912324 -7.396226768030963e-16
  outer loop
    vertex 1062.4876249004758 216.5195188429386 -70.32039955292132
    vertex 1059.3810231826776 214.13573950397017 -60.32039955292132
    vertex 1062.4876249004758 216.5195188429386 -60.32039955292132
  endloop
endfacet
facet normal 0.6015288151316854 0.7988511028760434 -3.8886548061011377e-16
  outer loop
    vertex 1064.2814698650482 226.21990523303106 -70.32039955292133
    vertex 1065.581348254486 225.24110667520375 -75.32039955292133
    vertex 1064.2814698650482 226.21990523303106 -75.32039955292133
  endloop
endfacet
facet normal 0.6015288151316854 0.7988511028760434 -3.8886548061011377e-16
  outer loop
    vertex 1065.581348254486 225.24110667520375 -75.32039955292133
    vertex 1064.2814698650482 226.21990523303106 -70.32039955292133
    vertex 1065.581348254486 225.24110667520375 -70.32039955292133
  endloop
endfacet
facet normal 0.002834700470045992 0.999994952920249 -0.001434784748409538
  outer loop
    vertex 1083.1262379692255 228.52913778617233 -70.32039955292133
    vertex 1084.9876249004756 228.52913778617238 -75.32039955292132
    vertex 1083.1262379692255 228.52913778617233 -75.32039955292132
  endloop
endfacet
facet normal 0.002834700470045992 0.999994952920249 -0.001434784748409538
  outer loop
    vertex 1084.9876249004756 228.52913778617238 -75.32039955292132
    vertex 1083.1262379692255 228.52913778617233 -70.32039955292133
    vertex 1084.9876249004756 228.52913778617238 -70.32039955292133
  endloop
endfacet
facet normal 0.002834700470045992 0.999994952920249 -0.001434784748409538
  outer loop
    vertex 1084.9876249004756 228.52913778617238 -70.32039955292133
    vertex 1083.1262379692255 228.52913778617233 -70.32039955292133
    vertex 1083.3723994506033 228.55260011895226 -70.32039955292133
  endloop
endfacet
facet normal 0.8933297138131663 0.44940184959397617 -5.615031657223368e-17
  outer loop
    vertex 1068.6964602426285 221.51057135791993 -75.32039955292132
    vertex 1069.427720111154 220.0569588067852 -70.32039955292133
    vertex 1069.427720111154 220.0569588067852 -75.32039955292132
  endloop
endfacet
facet normal 0.8933297138131663 0.44940184959397617 -5.615031657223368e-17
  outer loop
    vertex 1069.427720111154 220.0569588067852 -70.32039955292133
    vertex 1068.6964602426285 221.51057135791993 -75.32039955292132
    vertex 1068.6964602426285 221.51057135791993 -70.32039955292133
  endloop
endfacet
facet normal 0.793353340291228 0.60876142900873 -1.9818129895313584e-16
  outer loop
    vertex 1080.594226618274 214.1357395039705 -70.32039955292132
    vertex 1082.9780059572424 211.02913778617238 -45.320399552921295
    vertex 1082.9780059572424 211.02913778617233 -70.32039955292132
  endloop
endfacet
facet normal 0.793353340291228 0.60876142900873 -1.9818129895313584e-16
  outer loop
    vertex 1082.9780059572424 211.02913778617238 -45.320399552921295
    vertex 1080.594226618274 214.1357395039705 -70.32039955292132
    vertex 1080.594226618274 214.13573950397057 -45.320399552921295
  endloop
endfacet
facet normal 0.4038943709283297 0.9148056280611795 -5.288068948797533e-16
  outer loop
    vertex 1061.3894524444374 227.70054278331253 -70.32039955292133
    vertex 1062.8780102772698 227.0433319933478 -75.32039955292133
    vertex 1061.3894524444374 227.70054278331253 -75.32039955292133
  endloop
endfacet
facet normal 0.4038943709283297 0.9148056280611795 -5.288068948797533e-16
  outer loop
    vertex 1062.8780102772698 227.0433319933478 -75.32039955292133
    vertex 1061.3894524444374 227.70054278331253 -70.32039955292133
    vertex 1062.8780102772698 227.0433319933478 -70.32039955292133
  endloop
endfacet
facet normal 0.506043781450316 0.8625077919969564 -4.618775511286082e-16
  outer loop
    vertex 1062.8780102772698 227.0433319933478 -70.32039955292133
    vertex 1064.2814698650482 226.21990523303106 -75.32039955292133
    vertex 1062.8780102772698 227.0433319933478 -75.32039955292133
  endloop
endfacet
facet normal 0.506043781450316 0.8625077919969564 -4.618775511286082e-16
  outer loop
    vertex 1064.2814698650482 226.21990523303106 -75.32039955292133
    vertex 1062.8780102772698 227.0433319933478 -70.32039955292133
    vertex 1064.2814698650482 226.21990523303106 -70.32039955292133
  endloop
endfacet
facet normal 0.13052619222003836 0.9914448613738123 -6.631275506809361e-16
  outer loop
    vertex 1069.9876249004756 218.52913778617216 -60.32039955292132
    vertex 1073.8699105770136 218.01802518050823 -70.32039955292132
    vertex 1069.9876249004756 218.52913778617213 -70.32039955292132
  endloop
endfacet
facet normal 0.13052619222003836 0.9914448613738123 -6.631275506809361e-16
  outer loop
    vertex 1073.8699105770136 218.01802518050823 -70.32039955292132
    vertex 1069.9876249004756 218.52913778617216 -60.32039955292132
    vertex 1073.8699105770136 218.01802518050823 -60.32039955292132
  endloop
endfacet
facet normal 0.07124412508163688 0.9974589087483013 -6.851519093823207e-16
  outer loop
    vertex 1057.604346027883 228.52913778617193 -70.32039955292133
    vertex 1058.2363192197222 228.48399870652386 -75.32039955292133
    vertex 1057.604346027883 228.52913778617193 -75.32039955292133
  endloop
endfacet
facet normal 0.07124412508163688 0.9974589087483013 -6.851519093823207e-16
  outer loop
    vertex 1058.2363192197222 228.48399870652386 -75.32039955292133
    vertex 1057.604346027883 228.52913778617193 -70.32039955292133
    vertex 1058.2363192197222 228.48399870652386 -70.32039955292133
  endloop
endfacet
facet normal 0.13052619222007236 -0.9914448613738078 7.396226768030975e-16
  outer loop
    vertex 1073.869910577014 189.04025039183617 -60.3203995529213
    vertex 1069.9876249004762 188.5291377861721 -75.32039955292129
    vertex 1073.869910577014 189.04025039183617 -75.32039955292129
  endloop
endfacet
facet normal 0.13052619222007236 -0.9914448613738078 7.396226768030975e-16
  outer loop
    vertex 1069.9876249004762 188.5291377861721 -75.32039955292129
    vertex 1073.869910577014 189.04025039183617 -60.3203995529213
    vertex 1069.9876249004762 188.5291377861721 -60.3203995529213
  endloop
endfacet
facet normal 0.2964258469417231 0.9550558712792055 -5.887720814718525e-16
  outer loop
    vertex 1059.835400026769 228.18288242223034 -70.32039955292133
    vertex 1061.3894524444374 227.70054278331253 -75.32039955292133
    vertex 1059.835400026769 228.18288242223034 -75.32039955292133
  endloop
endfacet
facet normal 0.2964258469417231 0.9550558712792055 -5.887720814718525e-16
  outer loop
    vertex 1061.3894524444374 227.70054278331253 -75.32039955292133
    vertex 1059.835400026769 228.18288242223034 -70.32039955292133
    vertex 1061.3894524444374 227.70054278331253 -70.32039955292133
  endloop
endfacet
facet normal 0.18505352328060223 0.9827284434274993 -6.409833954388211e-16
  outer loop
    vertex 1058.2363192197222 228.48399870652386 -70.32039955292133
    vertex 1059.835400026769 228.18288242223034 -75.32039955292133
    vertex 1058.2363192197222 228.48399870652386 -75.32039955292133
  endloop
endfacet
facet normal 0.18505352328060223 0.9827284434274993 -6.409833954388211e-16
  outer loop
    vertex 1059.835400026769 228.18288242223034 -75.32039955292133
    vertex 1058.2363192197222 228.48399870652386 -70.32039955292133
    vertex 1059.835400026769 228.18288242223034 -70.32039955292133
  endloop
endfacet
facet normal -0.3826834323650638 -0.9238795325112976 5.414413778499704e-16
  outer loop
    vertex 1066.1053392239382 189.04025039183603 -75.32039955292129
    vertex 1062.487624900476 190.5387567294054 -60.3203995529213
    vertex 1062.487624900476 190.5387567294054 -75.3203995529213
  endloop
endfacet
facet normal -0.3826834323650638 -0.9238795325112976 5.414413778499704e-16
  outer loop
    vertex 1062.487624900476 190.5387567294054 -60.3203995529213
    vertex 1066.1053392239382 189.04025039183603 -75.32039955292129
    vertex 1066.1053392239382 189.04025039183603 -60.3203995529213
  endloop
endfacet
facet normal 0.767580093895507 0.6409530399766936 -2.2850675215889855e-16
  outer loop
    vertex 1066.7605266116966 224.11982667180658 -75.32039955292133
    vertex 1067.803475669801 222.87083199354265 -70.32039955292133
    vertex 1067.803475669801 222.87083199354265 -75.32039955292133
  endloop
endfacet
facet normal 0.767580093895507 0.6409530399766936 -2.2850675215889855e-16
  outer loop
    vertex 1067.803475669801 222.87083199354265 -70.32039955292133
    vertex 1066.7605266116966 224.11982667180658 -75.32039955292133
    vertex 1066.7605266116966 224.11982667180658 -70.32039955292133
  endloop
endfacet
facet normal 0.6087614290087194 0.7933533402912363 -3.816284871819694e-16
  outer loop
    vertex 1077.4876249004758 216.51951884293882 -60.32039955292132
    vertex 1080.594226618274 214.1357395039705 -70.32039955292132
    vertex 1077.4876249004758 216.51951884293882 -70.32039955292132
  endloop
endfacet
facet normal 0.6087614290087194 0.7933533402912363 -3.816284871819694e-16
  outer loop
    vertex 1080.594226618274 214.1357395039705 -70.32039955292132
    vertex 1077.4876249004758 216.51951884293882 -60.32039955292132
    vertex 1080.594226618274 214.13573950397057 -45.320399552921295
  endloop
endfacet
facet normal 0.6087614290087194 0.7933533402912363 -3.816284871819694e-16
  outer loop
    vertex 1080.594226618274 214.13573950397057 -45.320399552921295
    vertex 1077.4876249004758 216.51951884293882 -60.32039955292132
    vertex 1077.4876249004758 216.51951884293888 -45.320399552921316
  endloop
endfacet
facet normal 0.3826834323650637 0.9238795325112976 -5.414413778499702e-16
  outer loop
    vertex 1073.8699105770136 218.01802518050823 -60.32039955292132
    vertex 1077.4876249004758 216.51951884293882 -70.32039955292132
    vertex 1073.8699105770136 218.01802518050823 -70.32039955292132
  endloop
endfacet
facet normal 0.3826834323650637 0.9238795325112976 -5.414413778499702e-16
  outer loop
    vertex 1077.4876249004758 216.51951884293882 -70.32039955292132
    vertex 1073.8699105770136 218.01802518050823 -60.32039955292132
    vertex 1077.4876249004758 216.51951884293882 -60.32039955292132
  endloop
endfacet
facet normal -0.1305261922200724 0.9914448613738078 -7.396226768030975e-16
  outer loop
    vertex 1066.1053392239378 218.0180251805081 -60.32039955292132
    vertex 1069.9876249004756 218.52913778617213 -70.32039955292132
    vertex 1066.1053392239378 218.0180251805081 -70.32039955292132
  endloop
endfacet
facet normal -0.1305261922200724 0.9914448613738078 -7.396226768030975e-16
  outer loop
    vertex 1069.9876249004756 218.52913778617213 -70.32039955292132
    vertex 1066.1053392239378 218.0180251805081 -60.32039955292132
    vertex 1069.9876249004756 218.52913778617216 -60.32039955292132
  endloop
endfacet
facet normal -0.38268343236511176 0.9238795325112776 -7.657137397853897e-16
  outer loop
    vertex 1062.4876249004758 216.5195188429386 -60.32039955292132
    vertex 1066.1053392239378 218.0180251805081 -70.32039955292132
    vertex 1062.4876249004758 216.5195188429386 -70.32039955292132
  endloop
endfacet
facet normal -0.38268343236511176 0.9238795325112776 -7.657137397853897e-16
  outer loop
    vertex 1066.1053392239378 218.0180251805081 -70.32039955292132
    vertex 1062.4876249004758 216.5195188429386 -60.32039955292132
    vertex 1066.1053392239378 218.0180251805081 -60.32039955292132
  endloop
endfacet
facet normal 0.9914448613738123 -0.1305261922200384 3.8317675259070055e-16
  outer loop
    vertex 1084.987624900476 203.52913778617238 -75.3203995529213
    vertex 1084.476512294812 199.64685210963455 -45.32039955292129
    vertex 1084.476512294812 199.64685210963455 -75.3203995529213
  endloop
endfacet
facet normal 0.9914448613738123 -0.1305261922200384 3.8317675259070055e-16
  outer loop
    vertex 1084.476512294812 199.64685210963455 -45.32039955292129
    vertex 1084.987624900476 203.52913778617238 -75.3203995529213
    vertex 1084.987624900476 203.52913778617238 -70.3203995529213
  endloop
endfacet
facet normal 0.9914448613738123 -0.1305261922200384 3.8317675259070055e-16
  outer loop
    vertex 1084.476512294812 199.64685210963455 -45.32039955292129
    vertex 1084.987624900476 203.52913778617238 -70.3203995529213
    vertex 1084.987624900476 203.5291377861724 -45.320399552921295
  endloop
endfacet
facet normal -0.8824190485674013 0.47046426296308863 -5.913909314149617e-16
  outer loop
    vertex 1071.347193935624 221.45459516297421 -70.32039955292133
    vertex 1070.587207920168 220.02913909866166 -75.32039955292132
    vertex 1070.587207920168 220.02913909866166 -70.32039955292133
  endloop
endfacet
facet normal -0.8824190485674013 0.47046426296308863 -5.913909314149617e-16
  outer loop
    vertex 1070.587207920168 220.02913909866166 -75.32039955292132
    vertex 1071.347193935624 221.45459516297421 -70.32039955292133
    vertex 1071.347193935624 221.45459516297421 -75.32039955292132
  endloop
endfacet
facet normal 0.9389351474961753 0.3440941568761892 3.1710791180587027e-17
  outer loop
    vertex 1069.427720111154 220.0569588067852 -75.32039955292132
    vertex 1069.9876249004756 218.52913778617213 -70.32039955292132
    vertex 1069.9876249004756 218.52913778617213 -75.32039955292132
  endloop
endfacet
facet normal 0.9389351474961753 0.3440941568761892 3.1710791180587027e-17
  outer loop
    vertex 1069.9876249004756 218.52913778617213 -70.32039955292132
    vertex 1069.427720111154 220.0569588067852 -75.32039955292132
    vertex 1069.427720111154 220.0569588067852 -70.32039955292133
  endloop
endfacet
facet normal 0.6890919755455529 0.7246738916497042 -3.1073222058573594e-16
  outer loop
    vertex 1065.581348254486 225.24110667520375 -70.32039955292133
    vertex 1066.7605266116966 224.11982667180658 -75.32039955292133
    vertex 1065.581348254486 225.24110667520375 -75.32039955292133
  endloop
endfacet
facet normal 0.6890919755455529 0.7246738916497042 -3.1073222058573594e-16
  outer loop
    vertex 1066.7605266116966 224.11982667180658 -75.32039955292133
    vertex 1065.581348254486 225.24110667520375 -70.32039955292133
    vertex 1066.7605266116966 224.11982667180658 -70.32039955292133
  endloop
endfacet
facet normal -0.8256927269839037 0.5641201295875592 -6.41023358808898e-16
  outer loop
    vertex 1072.258471248854 222.78841576311743 -70.32039955292133
    vertex 1071.347193935624 221.45459516297421 -75.32039955292132
    vertex 1071.347193935624 221.45459516297421 -70.32039955292133
  endloop
endfacet
facet normal -0.8256927269839037 0.5641201295875592 -6.41023358808898e-16
  outer loop
    vertex 1071.347193935624 221.45459516297421 -75.32039955292132
    vertex 1072.258471248854 222.78841576311743 -70.32039955292133
    vertex 1072.258471248854 222.78841576311743 -75.32039955292132
  endloop
endfacet
facet normal -0.9285657861753752 0.3711678606028647 -5.34668142552377e-16
  outer loop
    vertex 1070.587207920168 220.02913909866166 -70.32039955292133
    vertex 1069.9876249004756 218.52913778617213 -75.32039955292132
    vertex 1069.9876249004756 218.52913778617213 -70.32039955292132
  endloop
endfacet
facet normal -0.9285657861753752 0.3711678606028647 -5.34668142552377e-16
  outer loop
    vertex 1069.9876249004756 218.52913778617213 -75.32039955292132
    vertex 1070.587207920168 220.02913909866166 -70.32039955292133
    vertex 1070.587207920168 220.02913909866166 -75.32039955292132
  endloop
endfacet
facet normal -0.759066930137286 0.6510125924833996 -6.829703668255005e-16
  outer loop
    vertex 1073.3101142855787 224.01460932788677 -70.32039955292133
    vertex 1072.258471248854 222.78841576311743 -75.32039955292132
    vertex 1072.258471248854 222.78841576311743 -70.32039955292133
  endloop
endfacet
facet normal -0.759066930137286 0.6510125924833996 -6.829703668255005e-16
  outer loop
    vertex 1072.258471248854 222.78841576311743 -75.32039955292132
    vertex 1073.3101142855787 224.01460932788677 -70.32039955292133
    vertex 1073.3101142855787 224.01460932788675 -75.32039955292132
  endloop
endfacet
facet normal 0.9914448613738078 0.1305261922200724 1.9818129895312662e-16
  outer loop
    vertex 1084.4765122948118 207.41142346271022 -70.3203995529213
    vertex 1084.987624900476 203.5291377861724 -45.320399552921295
    vertex 1084.987624900476 203.52913778617238 -70.3203995529213
  endloop
endfacet
facet normal 0.9914448613738078 0.1305261922200724 1.9818129895312662e-16
  outer loop
    vertex 1084.987624900476 203.5291377861724 -45.320399552921295
    vertex 1084.4765122948118 207.41142346271022 -70.3203995529213
    vertex 1084.4765122948118 207.41142346271022 -45.320399552921295
  endloop
endfacet
facet normal -0.793353340291228 -0.60876142900873 1.9818129895313584e-16
  outer loop
    vertex 1059.381023182678 192.92253606837372 -60.3203995529213
    vertex 1056.9972438437094 196.0291377861719 -75.3203995529213
    vertex 1059.381023182678 192.9225360683737 -75.3203995529213
  endloop
endfacet
facet normal -0.793353340291228 -0.60876142900873 1.9818129895313584e-16
  outer loop
    vertex 1056.9972438437094 196.0291377861719 -75.3203995529213
    vertex 1059.381023182678 192.92253606837372 -60.3203995529213
    vertex 1056.9972438437094 196.0291377861719 -60.32039955292131
  endloop
endfacet
facet normal 0.8359595157482189 0.548791115115764 -1.4327194904040798e-16
  outer loop
    vertex 1067.803475669801 222.87083199354265 -75.32039955292133
    vertex 1068.6964602426285 221.51057135791993 -70.32039955292133
    vertex 1068.6964602426285 221.51057135791993 -75.32039955292132
  endloop
endfacet
facet normal 0.8359595157482189 0.548791115115764 -1.4327194904040798e-16
  outer loop
    vertex 1068.6964602426285 221.51057135791993 -70.32039955292133
    vertex 1067.803475669801 222.87083199354265 -75.32039955292133
    vertex 1067.803475669801 222.87083199354265 -70.32039955292133
  endloop
endfacet
facet normal -0.6833404544878892 0.7300998721135932 -7.167290403311132e-16
  outer loop
    vertex 1073.3101142855787 224.01460932788675 -75.32039955292132
    vertex 1074.4895145851845 225.11847465856079 -70.32039955292133
    vertex 1074.4895145851845 225.11847465856079 -75.32039955292133
  endloop
endfacet
facet normal -0.6833404544878892 0.7300998721135932 -7.167290403311132e-16
  outer loop
    vertex 1074.4895145851845 225.11847465856079 -70.32039955292133
    vertex 1073.3101142855787 224.01460932788675 -75.32039955292132
    vertex 1073.3101142855787 224.01460932788677 -70.32039955292133
  endloop
endfacet
facet normal 0.923879532511277 0.38268343236511343 -1.1832913578315177e-29
  outer loop
    vertex 1082.9780059572424 211.02913778617233 -70.32039955292132
    vertex 1084.4765122948118 207.41142346271022 -45.320399552921295
    vertex 1084.4765122948118 207.41142346271022 -70.3203995529213
  endloop
endfacet
facet normal 0.923879532511277 0.38268343236511343 -1.1832913578315177e-29
  outer loop
    vertex 1084.4765122948118 207.41142346271022 -45.320399552921295
    vertex 1082.9780059572424 211.02913778617233 -70.32039955292132
    vertex 1082.9780059572424 211.02913778617238 -45.320399552921295
  endloop
endfacet
facet normal -0.30898588147045525 0.9510666249279942 -7.633513341032496e-16
  outer loop
    vertex 1078.6462321753916 227.57202125442885 -70.32039955292133
    vertex 1080.1825812493037 228.07115576341755 -75.32039955292133
    vertex 1078.6462321753916 227.57202125442885 -75.32039955292133
  endloop
endfacet
facet normal -0.30898588147045525 0.9510666249279942 -7.633513341032496e-16
  outer loop
    vertex 1080.1825812493037 228.07115576341755 -75.32039955292133
    vertex 1078.6462321753916 227.57202125442885 -70.32039955292133
    vertex 1080.1825812493037 228.07115576341755 -70.32039955292133
  endloop
endfacet
facet normal -0.793353340291249 0.6087614290087028 -6.631275506809301e-16
  outer loop
    vertex 1056.9972438437094 211.02913778617193 -60.32039955292132
    vertex 1059.3810231826776 214.13573950397017 -70.32039955292132
    vertex 1056.9972438437094 211.02913778617187 -70.32039955292132
  endloop
endfacet
facet normal -0.793353340291249 0.6087614290087028 -6.631275506809301e-16
  outer loop
    vertex 1059.3810231826776 214.13573950397017 -70.32039955292132
    vertex 1056.9972438437094 211.02913778617193 -60.32039955292132
    vertex 1059.3810231826776 214.13573950397017 -60.32039955292132
  endloop
endfacet
facet normal -0.9914448613738078 -0.1305261922200724 -1.9953062233381395e-16
  outer loop
    vertex 1054.987624900476 203.52913778617187 -60.32039955292131
    vertex 1055.49873750614 199.64685210963404 -75.3203995529213
    vertex 1055.49873750614 199.64685210963404 -60.32039955292131
  endloop
endfacet
facet normal -0.9914448613738078 -0.1305261922200724 -1.9953062233381395e-16
  outer loop
    vertex 1055.49873750614 199.64685210963404 -75.3203995529213
    vertex 1054.987624900476 203.52913778617187 -60.32039955292131
    vertex 1054.987624900476 203.52913778617187 -75.32039955292132
  endloop
endfacet
facet normal -0.9914448613738078 -0.1305261922200724 -1.9953062233381395e-16
  outer loop
    vertex 1054.987624900476 203.52913778617187 -75.32039955292132
    vertex 1054.987624900476 203.52913778617187 -60.32039955292131
    vertex 1054.987624900476 203.52913778617187 -70.32039955292132
  endloop
endfacet
facet normal -0.6087614290087194 -0.7933533402912362 3.8285686989268917e-16
  outer loop
    vertex 1062.487624900476 190.5387567294054 -60.3203995529213
    vertex 1059.381023182678 192.9225360683737 -75.3203995529213
    vertex 1062.487624900476 190.5387567294054 -75.3203995529213
  endloop
endfacet
facet normal -0.6087614290087194 -0.7933533402912362 3.8285686989268917e-16
  outer loop
    vertex 1059.381023182678 192.9225360683737 -75.3203995529213
    vertex 1062.487624900476 190.5387567294054 -60.3203995529213
    vertex 1059.381023182678 192.92253606837372 -60.3203995529213
  endloop
endfacet
facet normal -0.5083153211555496 0.8611710249877956 -7.58165437723706e-16
  outer loop
    vertex 1075.7825319672988 226.08677718593734 -70.32039955292133
    vertex 1077.1736640626134 226.90790764351354 -75.32039955292133
    vertex 1075.7825319672988 226.08677718593728 -75.32039955292133
  endloop
endfacet
facet normal -0.5083153211555496 0.8611710249877956 -7.58165437723706e-16
  outer loop
    vertex 1077.1736640626134 226.90790764351354 -75.32039955292133
    vertex 1075.7825319672988 226.08677718593734 -70.32039955292133
    vertex 1077.1736640626134 226.90790764351354 -70.32039955292133
  endloop
endfacet
facet normal -0.9238795325112901 0.3826834323650817 -5.414413778499613e-16
  outer loop
    vertex 1056.9972438437094 211.02913778617193 -60.32039955292132
    vertex 1055.4987375061398 207.4114234627097 -70.32039955292132
    vertex 1055.4987375061398 207.4114234627097 -60.32039955292132
  endloop
endfacet
facet normal -0.9238795325112901 0.3826834323650817 -5.414413778499613e-16
  outer loop
    vertex 1055.4987375061398 207.4114234627097 -70.32039955292132
    vertex 1056.9972438437094 211.02913778617193 -60.32039955292132
    vertex 1056.9972438437094 211.02913778617187 -70.32039955292132
  endloop
endfacet
facet normal -0.923879532511277 -0.38268343236511343 1.1832913578315177e-29
  outer loop
    vertex 1055.49873750614 199.64685210963404 -60.32039955292131
    vertex 1056.9972438437094 196.0291377861719 -75.3203995529213
    vertex 1056.9972438437094 196.0291377861719 -60.32039955292131
  endloop
endfacet
facet normal -0.923879532511277 -0.38268343236511343 1.1832913578315177e-29
  outer loop
    vertex 1056.9972438437094 196.0291377861719 -75.3203995529213
    vertex 1055.49873750614 199.64685210963404 -60.32039955292131
    vertex 1055.49873750614 199.64685210963404 -75.3203995529213
  endloop
endfacet
facet normal -0.9914448613738122 0.13052619222003836 -3.8285686989269272e-16
  outer loop
    vertex 1055.4987375061398 207.4114234627097 -60.32039955292132
    vertex 1054.987624900476 203.52913778617187 -70.32039955292132
    vertex 1054.987624900476 203.52913778617187 -60.32039955292131
  endloop
endfacet
facet normal -0.9914448613738122 0.13052619222003836 -3.8285686989269272e-16
  outer loop
    vertex 1054.987624900476 203.52913778617187 -70.32039955292132
    vertex 1055.4987375061398 207.4114234627097 -60.32039955292132
    vertex 1055.4987375061398 207.4114234627097 -70.32039955292132
  endloop
endfacet
facet normal -0.411115091763349 0.9115834472632844 -7.653463683393492e-16
  outer loop
    vertex 1077.1736640626134 226.90790764351354 -70.32039955292133
    vertex 1078.6462321753916 227.57202125442885 -75.32039955292133
    vertex 1077.1736640626134 226.90790764351354 -75.32039955292133
  endloop
endfacet
facet normal -0.411115091763349 0.9115834472632844 -7.653463683393492e-16
  outer loop
    vertex 1078.6462321753916 227.57202125442885 -75.32039955292133
    vertex 1077.1736640626134 226.90790764351354 -70.32039955292133
    vertex 1078.6462321753916 227.57202125442885 -70.32039955292133
  endloop
endfacet
facet normal -0.5994212072366467 0.8004337676003936 -7.418946365655917e-16
  outer loop
    vertex 1074.4895145851845 225.11847465856079 -70.32039955292133
    vertex 1075.7825319672988 226.08677718593728 -75.32039955292133
    vertex 1074.4895145851845 225.11847465856079 -75.32039955292133
  endloop
endfacet
facet normal -0.5994212072366467 0.8004337676003936 -7.418946365655917e-16
  outer loop
    vertex 1075.7825319672988 226.08677718593728 -75.32039955292133
    vertex 1074.4895145851845 225.11847465856079 -70.32039955292133
    vertex 1075.7825319672988 226.08677718593734 -70.32039955292133
  endloop
endfacet
facet normal -0.09488276251698198 0.9954884536633993 -7.306461176620643e-16
  outer loop
    vertex 1081.7642915391398 228.39932689865162 -70.32039955292133
    vertex 1083.1262379692255 228.52913778617233 -75.32039955292132
    vertex 1081.7642915391398 228.39932689865162 -75.32039955292133
  endloop
endfacet
facet normal -0.09488276251698198 0.9954884536633993 -7.306461176620643e-16
  outer loop
    vertex 1083.1262379692255 228.52913778617233 -75.32039955292132
    vertex 1081.7642915391398 228.39932689865162 -70.32039955292133
    vertex 1083.1262379692255 228.52913778617233 -70.32039955292133
  endloop
endfacet
facet normal -0.13052619222003833 -0.9914448613738123 6.631275506809361e-16
  outer loop
    vertex 1069.9876249004762 188.5291377861721 -60.3203995529213
    vertex 1066.1053392239382 189.04025039183603 -75.32039955292129
    vertex 1069.9876249004762 188.5291377861721 -75.32039955292129
  endloop
endfacet
facet normal -0.13052619222003833 -0.9914448613738123 6.631275506809361e-16
  outer loop
    vertex 1066.1053392239382 189.04025039183603 -75.32039955292129
    vertex 1069.9876249004762 188.5291377861721 -60.3203995529213
    vertex 1066.1053392239382 189.04025039183603 -60.3203995529213
  endloop
endfacet
facet normal -0.20315214770240492 0.9791471824418944 -7.52204254073213e-16
  outer loop
    vertex 1080.1825812493037 228.07115576341755 -70.32039955292133
    vertex 1081.7642915391398 228.39932689865162 -75.32039955292133
    vertex 1080.1825812493037 228.07115576341755 -75.32039955292133
  endloop
endfacet
facet normal -0.20315214770240492 0.9791471824418944 -7.52204254073213e-16
  outer loop
    vertex 1081.7642915391398 228.39932689865162 -75.32039955292133
    vertex 1080.1825812493037 228.07115576341755 -70.32039955292133
    vertex 1081.7642915391398 228.39932689865162 -70.32039955292133
  endloop
endfacet
facet normal -1.1928387366215958e-16 3.33627457165115e-16 1.0
  outer loop
    vertex 1085.0170249004757 190.5387567294058 -45.320399552921295
    vertex 1080.5942266182744 192.9225360683741 -45.32039955292129
    vertex 1077.487624900476 190.53875672940566 -45.320399552921295
  endloop
endfacet
facet normal -1.1928387366215958e-16 3.33627457165115e-16 1.0
  outer loop
    vertex 1080.5942266182744 192.9225360683741 -45.32039955292129
    vertex 1085.0170249004757 190.5387567294058 -45.320399552921295
    vertex 1082.9780059572427 196.02913778617236 -45.32039955292129
  endloop
endfacet
facet normal -1.1928387366215958e-16 3.33627457165115e-16 1.0
  outer loop
    vertex 1082.9780059572427 196.02913778617236 -45.32039955292129
    vertex 1085.0170249004757 190.5387567294058 -45.320399552921295
    vertex 1084.476512294812 199.64685210963455 -45.32039955292129
  endloop
endfacet
facet normal -1.1928387366215958e-16 3.33627457165115e-16 1.0
  outer loop
    vertex 1084.476512294812 199.64685210963455 -45.32039955292129
    vertex 1085.0170249004757 190.5387567294058 -45.320399552921295
    vertex 1084.987624900476 203.5291377861724 -45.320399552921295
  endloop
endfacet
facet normal -1.1928387366215958e-16 3.33627457165115e-16 1.0
  outer loop
    vertex 1084.987624900476 203.5291377861724 -45.320399552921295
    vertex 1085.0170249004757 190.5387567294058 -45.320399552921295
    vertex 1085.0170249004757 203.5291377861724 -45.3203995529213
  endloop
endfacet
facet normal -1.7167558192592238e-14 1.0 -7.07427251950397e-16
  outer loop
    vertex 1085.0170249004757 190.5387567294058 -45.320399552921295
    vertex 1077.487624900476 190.53875672940566 -60.3203995529213
    vertex 1077.487624900476 190.53875672940566 -45.320399552921295
  endloop
endfacet
facet normal -2.010122696908628e-15 4.2342785486325624e-16 1.0
  outer loop
    vertex 1077.487624900476 203.52913778617227 -45.3203995529213
    vertex 1080.594226618274 214.13573950397057 -45.320399552921295
    vertex 1077.4876249004758 216.51951884293888 -45.320399552921316
  endloop
endfacet
facet normal -2.010122696908628e-15 4.2342785486325624e-16 1.0
  outer loop
    vertex 1080.594226618274 214.13573950397057 -45.320399552921295
    vertex 1077.487624900476 203.52913778617227 -45.3203995529213
    vertex 1084.987624900476 203.5291377861724 -45.320399552921295
  endloop
endfacet
facet normal -2.010122696908628e-15 4.2342785486325624e-16 1.0
  outer loop
    vertex 1080.594226618274 214.13573950397057 -45.320399552921295
    vertex 1084.987624900476 203.5291377861724 -45.320399552921295
    vertex 1082.9780059572424 211.02913778617238 -45.320399552921295
  endloop
endfacet
facet normal -2.010122696908628e-15 4.2342785486325624e-16 1.0
  outer loop
    vertex 1082.9780059572424 211.02913778617238 -45.320399552921295
    vertex 1084.987624900476 203.5291377861724 -45.320399552921295
    vertex 1084.4765122948118 207.41142346271022 -45.320399552921295
  endloop
endfacet
facet normal -1.9502969161722965e-15 0.13052619222004994 -0.9914448613738106
  outer loop
    vertex 1085.0170249004757 203.5291377861724 -32.33001849615471
    vertex 1077.487624900476 200.16697976554207 -32.77265499685417
    vertex 1077.487624900476 203.52913778617227 -32.33001849615471
  endloop
endfacet
facet normal -1.9502969161722965e-15 0.13052619222004994 -0.9914448613738106
  outer loop
    vertex 1077.487624900476 200.16697976554207 -32.77265499685417
    vertex 1085.0170249004757 203.5291377861724 -32.33001849615471
    vertex 1085.0170249004757 200.16697976554218 -32.772654996854165
  endloop
endfacet
facet normal -9.503329119377212e-15 0.38268343236508884 -0.9238795325112872
  outer loop
    vertex 1085.0170249004757 200.16697976554218 -32.772654996854165
    vertex 1077.487624900476 197.03394725778895 -34.07039955292129
    vertex 1077.487624900476 200.16697976554207 -32.77265499685417
  endloop
endfacet
facet normal -9.503329119377212e-15 0.38268343236508884 -0.9238795325112872
  outer loop
    vertex 1077.487624900476 197.03394725778895 -34.07039955292129
    vertex 1085.0170249004757 200.16697976554218 -32.772654996854165
    vertex 1085.0170249004757 197.03394725778907 -34.07039955292129
  endloop
endfacet
facet normal -1.3626363146586316e-14 0.7933533402912345 -0.6087614290087215
  outer loop
    vertex 1077.487624900476 194.34355125073535 -36.13481301748437
    vertex 1085.0170249004757 192.27913778617238 -38.825209024538
    vertex 1077.4876249004762 192.27913778617224 -38.825209024538005
  endloop
endfacet
facet normal -1.3626363146586316e-14 0.7933533402912345 -0.6087614290087215
  outer loop
    vertex 1085.0170249004757 192.27913778617238 -38.825209024538
    vertex 1077.487624900476 194.34355125073535 -36.13481301748437
    vertex 1085.0170249004757 194.34355125073546 -36.13481301748437
  endloop
endfacet
facet normal -1.1972809731583718e-14 0.6087614290087237 -0.793353340291233
  outer loop
    vertex 1085.0170249004757 197.03394725778907 -34.07039955292129
    vertex 1077.487624900476 194.34355125073535 -36.13481301748437
    vertex 1077.487624900476 197.03394725778895 -34.07039955292129
  endloop
endfacet
facet normal -1.1972809731583718e-14 0.6087614290087237 -0.793353340291233
  outer loop
    vertex 1077.487624900476 194.34355125073535 -36.13481301748437
    vertex 1085.0170249004757 197.03394725778907 -34.07039955292129
    vertex 1085.0170249004757 194.34355125073546 -36.13481301748437
  endloop
endfacet
facet normal -1.435130243177892e-14 0.923879532511289 -0.38268343236508445
  outer loop
    vertex 1077.4876249004762 192.27913778617224 -38.825209024538005
    vertex 1085.0170249004757 190.98139323010528 -41.95824153229109
    vertex 1077.4876249004762 190.98139323010514 -41.95824153229109
  endloop
endfacet
facet normal -1.435130243177892e-14 0.923879532511289 -0.38268343236508445
  outer loop
    vertex 1085.0170249004757 190.98139323010528 -41.95824153229109
    vertex 1077.4876249004762 192.27913778617224 -38.825209024538005
    vertex 1085.0170249004757 192.27913778617238 -38.825209024538
  endloop
endfacet
facet normal -1.6982818444241205e-14 0.9914448613738095 -0.13052619222005873
  outer loop
    vertex 1077.4876249004762 190.98139323010514 -41.95824153229109
    vertex 1085.0170249004757 190.5387567294058 -45.320399552921295
    vertex 1077.487624900476 190.53875672940566 -45.320399552921295
  endloop
endfacet
facet normal -1.6982818444241205e-14 0.9914448613738095 -0.13052619222005873
  outer loop
    vertex 1085.0170249004757 190.5387567294058 -45.320399552921295
    vertex 1077.4876249004762 190.98139323010514 -41.95824153229109
    vertex 1085.0170249004757 190.98139323010528 -41.95824153229109
  endloop
endfacet
facet normal 6.8404607833935966e-15 -0.38268343236509017 -0.9238795325112867
  outer loop
    vertex 1085.0170249004755 210.0243283145557 -34.070399552921295
    vertex 1077.487624900476 206.89129580680247 -32.77265499685418
    vertex 1077.487624900476 210.02432831455556 -34.070399552921295
  endloop
endfacet
facet normal 6.8404607833935966e-15 -0.38268343236509017 -0.9238795325112867
  outer loop
    vertex 1077.487624900476 206.89129580680247 -32.77265499685418
    vertex 1085.0170249004755 210.0243283145557 -34.070399552921295
    vertex 1085.0170249004755 206.8912958068026 -32.77265499685417
  endloop
endfacet
facet normal -1.0 -1.0220962319291975e-14 1.712283536550545e-15
  outer loop
    vertex 1077.487624900476 203.52913778617227 -45.3203995529213
    vertex 1077.487624900476 190.53875672940566 -60.3203995529213
    vertex 1077.487624900476 190.53875672940566 -45.320399552921295
  endloop
endfacet
facet normal -1.0 -1.0220962319291975e-14 1.712283536550545e-15
  outer loop
    vertex 1077.487624900476 190.53875672940566 -60.3203995529213
    vertex 1077.487624900476 203.52913778617227 -45.3203995529213
    vertex 1077.4876249004758 216.51951884293882 -60.32039955292132
  endloop
endfacet
facet normal -1.0 -1.0220962319291975e-14 1.712283536550545e-15
  outer loop
    vertex 1077.4876249004758 216.51951884293882 -60.32039955292132
    vertex 1077.487624900476 203.52913778617227 -45.3203995529213
    vertex 1077.4876249004758 216.51951884293888 -45.320399552921316
  endloop
endfacet
facet normal -2.0101226969086343e-15 9.91426649037483e-16 1.0
  outer loop
    vertex 1080.5942266182744 192.9225360683741 -45.32039955292129
    vertex 1077.487624900476 203.52913778617227 -45.3203995529213
    vertex 1077.487624900476 190.53875672940566 -45.320399552921295
  endloop
endfacet
facet normal -2.0101226969086343e-15 9.91426649037483e-16 1.0
  outer loop
    vertex 1077.487624900476 203.52913778617227 -45.3203995529213
    vertex 1080.5942266182744 192.9225360683741 -45.32039955292129
    vertex 1084.987624900476 203.5291377861724 -45.320399552921295
  endloop
endfacet
facet normal -2.0101226969086343e-15 9.91426649037483e-16 1.0
  outer loop
    vertex 1084.987624900476 203.5291377861724 -45.320399552921295
    vertex 1080.5942266182744 192.9225360683741 -45.32039955292129
    vertex 1082.9780059572427 196.02913778617236 -45.32039955292129
  endloop
endfacet
facet normal -2.0101226969086343e-15 9.91426649037483e-16 1.0
  outer loop
    vertex 1084.987624900476 203.5291377861724 -45.320399552921295
    vertex 1082.9780059572427 196.02913778617236 -45.32039955292129
    vertex 1084.476512294812 199.64685210963455 -45.32039955292129
  endloop
endfacet
facet normal 1.7058934915442502e-14 -0.9914448613738097 -0.13052619222005735
  outer loop
    vertex 1085.0170249004752 216.07688234223951 -41.958241532291105
    vertex 1077.4876249004758 216.51951884293888 -45.320399552921316
    vertex 1085.0170249004752 216.51951884293896 -45.320399552921316
  endloop
endfacet
facet normal 1.7058934915442502e-14 -0.9914448613738097 -0.13052619222005735
  outer loop
    vertex 1077.4876249004758 216.51951884293888 -45.320399552921316
    vertex 1085.0170249004752 216.07688234223951 -41.958241532291105
    vertex 1077.4876249004758 216.0768823422394 -41.95824153229111
  endloop
endfacet
facet normal 2.8394538741321943e-16 -6.942826086770564e-16 -1.0
  outer loop
    vertex 1057.604346027883 228.52913778617193 -75.32039955292133
    vertex 1054.987624900476 203.52913778617187 -75.32039955292132
    vertex 1054.9876249004753 228.52913778617187 -75.32039955292133
  endloop
endfacet
facet normal 2.8394538741321943e-16 -6.942826086770564e-16 -1.0
  outer loop
    vertex 1054.987624900476 203.52913778617187 -75.32039955292132
    vertex 1057.604346027883 228.52913778617193 -75.32039955292133
    vertex 1055.49873750614 199.64685210963404 -75.3203995529213
  endloop
endfacet
facet normal 2.8394538741321943e-16 -6.942826086770564e-16 -1.0
  outer loop
    vertex 1055.49873750614 199.64685210963404 -75.3203995529213
    vertex 1057.604346027883 228.52913778617193 -75.32039955292133
    vertex 1056.9972438437094 196.0291377861719 -75.3203995529213
  endloop
endfacet
facet normal 2.8394538741321943e-16 -6.942826086770564e-16 -1.0
  outer loop
    vertex 1056.9972438437094 196.0291377861719 -75.3203995529213
    vertex 1057.604346027883 228.52913778617193 -75.32039955292133
    vertex 1059.381023182678 192.9225360683737 -75.3203995529213
  endloop
endfacet
facet normal 2.8394538741321943e-16 -6.942826086770564e-16 -1.0
  outer loop
    vertex 1059.381023182678 192.9225360683737 -75.3203995529213
    vertex 1057.604346027883 228.52913778617193 -75.32039955292133
    vertex 1058.2363192197222 228.48399870652386 -75.32039955292133
  endloop
endfacet
facet normal 2.8394538741321943e-16 -6.942826086770564e-16 -1.0
  outer loop
    vertex 1059.381023182678 192.9225360683737 -75.3203995529213
    vertex 1058.2363192197222 228.48399870652386 -75.32039955292133
    vertex 1059.835400026769 228.18288242223034 -75.32039955292133
  endloop
endfacet
facet normal 2.8394538741321943e-16 -6.942826086770564e-16 -1.0
  outer loop
    vertex 1059.381023182678 192.9225360683737 -75.3203995529213
    vertex 1059.835400026769 228.18288242223034 -75.32039955292133
    vertex 1062.487624900476 190.5387567294054 -75.3203995529213
  endloop
endfacet
facet normal 2.8394538741321943e-16 -6.942826086770564e-16 -1.0
  outer loop
    vertex 1062.487624900476 190.5387567294054 -75.3203995529213
    vertex 1059.835400026769 228.18288242223034 -75.32039955292133
    vertex 1061.3894524444374 227.70054278331253 -75.32039955292133
  endloop
endfacet
facet normal 2.8394538741321943e-16 -6.942826086770564e-16 -1.0
  outer loop
    vertex 1062.487624900476 190.5387567294054 -75.3203995529213
    vertex 1061.3894524444374 227.70054278331253 -75.32039955292133
    vertex 1062.8780102772698 227.0433319933478 -75.32039955292133
  endloop
endfacet
facet normal 2.8394538741321943e-16 -6.942826086770564e-16 -1.0
  outer loop
    vertex 1062.487624900476 190.5387567294054 -75.3203995529213
    vertex 1062.8780102772698 227.0433319933478 -75.32039955292133
    vertex 1066.1053392239382 189.04025039183603 -75.32039955292129
  endloop
endfacet
facet normal 2.8394538741321943e-16 -6.942826086770564e-16 -1.0
  outer loop
    vertex 1066.1053392239382 189.04025039183603 -75.32039955292129
    vertex 1062.8780102772698 227.0433319933478 -75.32039955292133
    vertex 1064.2814698650482 226.21990523303106 -75.32039955292133
  endloop
endfacet
facet normal 2.8394538741321943e-16 -6.942826086770564e-16 -1.0
  outer loop
    vertex 1066.1053392239382 189.04025039183603 -75.32039955292129
    vertex 1064.2814698650482 226.21990523303106 -75.32039955292133
    vertex 1065.581348254486 225.24110667520375 -75.32039955292133
  endloop
endfacet
facet normal 2.8394538741321943e-16 -6.942826086770564e-16 -1.0
  outer loop
    vertex 1066.1053392239382 189.04025039183603 -75.32039955292129
    vertex 1065.581348254486 225.24110667520375 -75.32039955292133
    vertex 1066.7605266116966 224.11982667180658 -75.32039955292133
  endloop
endfacet
facet normal 2.8394538741321943e-16 -6.942826086770564e-16 -1.0
  outer loop
    vertex 1066.1053392239382 189.04025039183603 -75.32039955292129
    vertex 1066.7605266116966 224.11982667180658 -75.32039955292133
    vertex 1069.9876249004762 188.5291377861721 -75.32039955292129
  endloop
endfacet
facet normal 2.8394538741321943e-16 -6.942826086770564e-16 -1.0
  outer loop
    vertex 1069.9876249004762 188.5291377861721 -75.32039955292129
    vertex 1066.7605266116966 224.11982667180658 -75.32039955292133
    vertex 1067.803475669801 222.87083199354265 -75.32039955292133
  endloop
endfacet
facet normal 2.8394538741321943e-16 -6.942826086770564e-16 -1.0
  outer loop
    vertex 1069.9876249004762 188.5291377861721 -75.32039955292129
    vertex 1067.803475669801 222.87083199354265 -75.32039955292133
    vertex 1068.6964602426285 221.51057135791993 -75.32039955292132
  endloop
endfacet
facet normal 2.8394538741321943e-16 -6.942826086770564e-16 -1.0
  outer loop
    vertex 1069.9876249004762 188.5291377861721 -75.32039955292129
    vertex 1068.6964602426285 221.51057135791993 -75.32039955292132
    vertex 1069.427720111154 220.0569588067852 -75.32039955292132
  endloop
endfacet
facet normal 2.8394538741321943e-16 -6.942826086770564e-16 -1.0
  outer loop
    vertex 1069.9876249004762 188.5291377861721 -75.32039955292129
    vertex 1069.427720111154 220.0569588067852 -75.32039955292132
    vertex 1069.9876249004756 218.52913778617213 -75.32039955292132
  endloop
endfacet
facet normal 2.8394538741321943e-16 -6.942826086770564e-16 -1.0
  outer loop
    vertex 1069.9876249004762 188.5291377861721 -75.32039955292129
    vertex 1069.9876249004756 218.52913778617213 -75.32039955292132
    vertex 1070.587207920168 220.02913909866166 -75.32039955292132
  endloop
endfacet
facet normal 2.8394538741321943e-16 -6.942826086770564e-16 -1.0
  outer loop
    vertex 1069.9876249004762 188.5291377861721 -75.32039955292129
    vertex 1070.587207920168 220.02913909866166 -75.32039955292132
    vertex 1073.869910577014 189.04025039183617 -75.32039955292129
  endloop
endfacet
facet normal 2.8394538741321943e-16 -6.942826086770564e-16 -1.0
  outer loop
    vertex 1073.869910577014 189.04025039183617 -75.32039955292129
    vertex 1070.587207920168 220.02913909866166 -75.32039955292132
    vertex 1071.347193935624 221.45459516297421 -75.32039955292132
  endloop
endfacet
facet normal 2.8394538741321943e-16 -6.942826086770564e-16 -1.0
  outer loop
    vertex 1073.869910577014 189.04025039183617 -75.32039955292129
    vertex 1071.347193935624 221.45459516297421 -75.32039955292132
    vertex 1072.258471248854 222.78841576311743 -75.32039955292132
  endloop
endfacet
facet normal 2.8394538741321943e-16 -6.942826086770564e-16 -1.0
  outer loop
    vertex 1073.869910577014 189.04025039183617 -75.32039955292129
    vertex 1072.258471248854 222.78841576311743 -75.32039955292132
    vertex 1073.3101142855787 224.01460932788675 -75.32039955292132
  endloop
endfacet
facet normal 2.8394538741321943e-16 -6.942826086770564e-16 -1.0
  outer loop
    vertex 1073.869910577014 189.04025039183617 -75.32039955292129
    vertex 1073.3101142855787 224.01460932788675 -75.32039955292132
    vertex 1074.4895145851845 225.11847465856079 -75.32039955292133
  endloop
endfacet
facet normal 2.8394538741321943e-16 -6.942826086770564e-16 -1.0
  outer loop
    vertex 1073.869910577014 189.04025039183617 -75.32039955292129
    vertex 1074.4895145851845 225.11847465856079 -75.32039955292133
    vertex 1077.487624900476 190.53875672940563 -75.32039955292129
  endloop
endfacet
facet normal 2.8394538741321943e-16 -6.942826086770564e-16 -1.0
  outer loop
    vertex 1077.487624900476 190.53875672940563 -75.32039955292129
    vertex 1074.4895145851845 225.11847465856079 -75.32039955292133
    vertex 1075.7825319672988 226.08677718593728 -75.32039955292133
  endloop
endfacet
facet normal 2.8394538741321943e-16 -6.942826086770564e-16 -1.0
  outer loop
    vertex 1077.487624900476 190.53875672940563 -75.32039955292129
    vertex 1075.7825319672988 226.08677718593728 -75.32039955292133
    vertex 1077.1736640626134 226.90790764351354 -75.32039955292133
  endloop
endfacet
facet normal 2.8394538741321943e-16 -6.942826086770564e-16 -1.0
  outer loop
    vertex 1077.487624900476 190.53875672940563 -75.32039955292129
    vertex 1077.1736640626134 226.90790764351354 -75.32039955292133
    vertex 1078.6462321753916 227.57202125442885 -75.32039955292133
  endloop
endfacet
facet normal 2.8394538741321943e-16 -6.942826086770564e-16 -1.0
  outer loop
    vertex 1077.487624900476 190.53875672940563 -75.32039955292129
    vertex 1078.6462321753916 227.57202125442885 -75.32039955292133
    vertex 1080.5942266182744 192.92253606837406 -75.32039955292129
  endloop
endfacet
facet normal 2.8394538741321943e-16 -6.942826086770564e-16 -1.0
  outer loop
    vertex 1080.5942266182744 192.92253606837406 -75.32039955292129
    vertex 1078.6462321753916 227.57202125442885 -75.32039955292133
    vertex 1080.1825812493037 228.07115576341755 -75.32039955292133
  endloop
endfacet
facet normal 2.8394538741321943e-16 -6.942826086770564e-16 -1.0
  outer loop
    vertex 1080.5942266182744 192.92253606837406 -75.32039955292129
    vertex 1080.1825812493037 228.07115576341755 -75.32039955292133
    vertex 1081.7642915391398 228.39932689865162 -75.32039955292133
  endloop
endfacet
facet normal 2.8394538741321943e-16 -6.942826086770564e-16 -1.0
  outer loop
    vertex 1080.5942266182744 192.92253606837406 -75.32039955292129
    vertex 1081.7642915391398 228.39932689865162 -75.32039955292133
    vertex 1082.9780059572427 196.02913778617233 -75.3203995529213
  endloop
endfacet
facet normal 2.8394538741321943e-16 -6.942826086770564e-16 -1.0
  outer loop
    vertex 1082.9780059572427 196.02913778617233 -75.3203995529213
    vertex 1081.7642915391398 228.39932689865162 -75.32039955292133
    vertex 1083.1262379692255 228.52913778617233 -75.32039955292132
  endloop
endfacet
facet normal 2.8394538741321943e-16 -6.942826086770564e-16 -1.0
  outer loop
    vertex 1082.9780059572427 196.02913778617233 -75.3203995529213
    vertex 1083.1262379692255 228.52913778617233 -75.32039955292132
    vertex 1084.476512294812 199.64685210963455 -75.3203995529213
  endloop
endfacet
facet normal 2.8394538741321943e-16 -6.942826086770564e-16 -1.0
  outer loop
    vertex 1084.476512294812 199.64685210963455 -75.3203995529213
    vertex 1083.1262379692255 228.52913778617233 -75.32039955292132
    vertex 1084.9876249004756 228.52913778617238 -75.32039955292132
  endloop
endfacet
facet normal 2.8394538741321943e-16 -6.942826086770564e-16 -1.0
  outer loop
    vertex 1084.476512294812 199.64685210963455 -75.3203995529213
    vertex 1084.9876249004756 228.52913778617238 -75.32039955292132
    vertex 1084.987624900476 203.52913778617238 -75.3203995529213
  endloop
endfacet
facet normal -2.930259621501891e-16 7.07427251950392e-16 1.0
  outer loop
    vertex 1054.987624900476 203.52913778617187 -70.32039955292132
    vertex 1057.604346027883 228.52913778617193 -70.32039955292133
    vertex 1054.9876249004753 228.52913778617187 -70.32039955292133
  endloop
endfacet
facet normal -2.930259621501891e-16 7.07427251950392e-16 1.0
  outer loop
    vertex 1057.604346027883 228.52913778617193 -70.32039955292133
    vertex 1054.987624900476 203.52913778617187 -70.32039955292132
    vertex 1055.4987375061398 207.4114234627097 -70.32039955292132
  endloop
endfacet
facet normal -2.930259621501891e-16 7.07427251950392e-16 1.0
  outer loop
    vertex 1057.604346027883 228.52913778617193 -70.32039955292133
    vertex 1055.4987375061398 207.4114234627097 -70.32039955292132
    vertex 1056.9972438437094 211.02913778617187 -70.32039955292132
  endloop
endfacet
facet normal -2.930259621501891e-16 7.07427251950392e-16 1.0
  outer loop
    vertex 1057.604346027883 228.52913778617193 -70.32039955292133
    vertex 1056.9972438437094 211.02913778617187 -70.32039955292132
    vertex 1059.3810231826776 214.13573950397017 -70.32039955292132
  endloop
endfacet
facet normal -2.930259621501891e-16 7.07427251950392e-16 1.0
  outer loop
    vertex 1057.604346027883 228.52913778617193 -70.32039955292133
    vertex 1059.3810231826776 214.13573950397017 -70.32039955292132
    vertex 1058.2363192197222 228.48399870652386 -70.32039955292133
  endloop
endfacet
facet normal -2.930259621501891e-16 7.07427251950392e-16 1.0
  outer loop
    vertex 1058.2363192197222 228.48399870652386 -70.32039955292133
    vertex 1059.3810231826776 214.13573950397017 -70.32039955292132
    vertex 1059.835400026769 228.18288242223034 -70.32039955292133
  endloop
endfacet
facet normal -2.930259621501891e-16 7.07427251950392e-16 1.0
  outer loop
    vertex 1059.835400026769 228.18288242223034 -70.32039955292133
    vertex 1059.3810231826776 214.13573950397017 -70.32039955292132
    vertex 1062.4876249004758 216.5195188429386 -70.32039955292132
  endloop
endfacet
facet normal -2.930259621501891e-16 7.07427251950392e-16 1.0
  outer loop
    vertex 1059.835400026769 228.18288242223034 -70.32039955292133
    vertex 1062.4876249004758 216.5195188429386 -70.32039955292132
    vertex 1061.3894524444374 227.70054278331253 -70.32039955292133
  endloop
endfacet
facet normal -2.930259621501891e-16 7.07427251950392e-16 1.0
  outer loop
    vertex 1061.3894524444374 227.70054278331253 -70.32039955292133
    vertex 1062.4876249004758 216.5195188429386 -70.32039955292132
    vertex 1062.8780102772698 227.0433319933478 -70.32039955292133
  endloop
endfacet
facet normal -2.930259621501891e-16 7.07427251950392e-16 1.0
  outer loop
    vertex 1062.8780102772698 227.0433319933478 -70.32039955292133
    vertex 1062.4876249004758 216.5195188429386 -70.32039955292132
    vertex 1066.1053392239378 218.0180251805081 -70.32039955292132
  endloop
endfacet
facet normal -2.930259621501891e-16 7.07427251950392e-16 1.0
  outer loop
    vertex 1062.8780102772698 227.0433319933478 -70.32039955292133
    vertex 1066.1053392239378 218.0180251805081 -70.32039955292132
    vertex 1064.2814698650482 226.21990523303106 -70.32039955292133
  endloop
endfacet
facet normal -2.930259621501891e-16 7.07427251950392e-16 1.0
  outer loop
    vertex 1064.2814698650482 226.21990523303106 -70.32039955292133
    vertex 1066.1053392239378 218.0180251805081 -70.32039955292132
    vertex 1065.581348254486 225.24110667520375 -70.32039955292133
  endloop
endfacet
facet normal -2.930259621501891e-16 7.07427251950392e-16 1.0
  outer loop
    vertex 1065.581348254486 225.24110667520375 -70.32039955292133
    vertex 1066.1053392239378 218.0180251805081 -70.32039955292132
    vertex 1066.7605266116966 224.11982667180658 -70.32039955292133
  endloop
endfacet
facet normal -2.930259621501891e-16 7.07427251950392e-16 1.0
  outer loop
    vertex 1066.7605266116966 224.11982667180658 -70.32039955292133
    vertex 1066.1053392239378 218.0180251805081 -70.32039955292132
    vertex 1069.9876249004756 218.52913778617213 -70.32039955292132
  endloop
endfacet
facet normal -2.930259621501891e-16 7.07427251950392e-16 1.0
  outer loop
    vertex 1066.7605266116966 224.11982667180658 -70.32039955292133
    vertex 1069.9876249004756 218.52913778617213 -70.32039955292132
    vertex 1067.803475669801 222.87083199354265 -70.32039955292133
  endloop
endfacet
facet normal -2.930259621501891e-16 7.07427251950392e-16 1.0
  outer loop
    vertex 1067.803475669801 222.87083199354265 -70.32039955292133
    vertex 1069.9876249004756 218.52913778617213 -70.32039955292132
    vertex 1068.6964602426285 221.51057135791993 -70.32039955292133
  endloop
endfacet
facet normal -2.930259621501891e-16 7.07427251950392e-16 1.0
  outer loop
    vertex 1068.6964602426285 221.51057135791993 -70.32039955292133
    vertex 1069.9876249004756 218.52913778617213 -70.32039955292132
    vertex 1069.427720111154 220.0569588067852 -70.32039955292133
  endloop
endfacet
facet normal 1.0 1.7167558192592238e-14 2.9302596215017715e-16
  outer loop
    vertex 1084.9876249004756 228.52913778617238 -75.32039955292132
    vertex 1084.987624900476 203.52913778617238 -70.3203995529213
    vertex 1084.987624900476 203.52913778617238 -75.3203995529213
  endloop
endfacet
facet normal 1.0 1.7167558192592238e-14 2.9302596215017715e-16
  outer loop
    vertex 1084.987624900476 203.52913778617238 -70.3203995529213
    vertex 1084.9876249004756 228.52913778617238 -75.32039955292132
    vertex 1084.9876249004756 228.52913778617238 -70.32039955292133
  endloop
endfacet
facet normal -1.0 -1.7167558192592238e-14 -2.9302596215017715e-16
  outer loop
    vertex 1054.9876249004753 228.52913778617187 -70.32039955292133
    vertex 1054.987624900476 203.52913778617187 -75.32039955292132
    vertex 1054.987624900476 203.52913778617187 -70.32039955292132
  endloop
endfacet
facet normal -1.0 -1.7167558192592238e-14 -2.9302596215017715e-16
  outer loop
    vertex 1054.987624900476 203.52913778617187 -75.32039955292132
    vertex 1054.9876249004753 228.52913778617187 -70.32039955292133
    vertex 1054.9876249004753 228.52913778617187 -75.32039955292133
  endloop
endfacet
facet normal -1.7167558192592238e-14 1.0 -7.07427251950397e-16
  outer loop
    vertex 1054.9876249004753 228.52913778617187 -70.32039955292133
    vertex 1057.604346027883 228.52913778617193 -75.32039955292133
    vertex 1054.9876249004753 228.52913778617187 -75.32039955292133
  endloop
endfacet
facet normal -1.7167558192592238e-14 1.0 -7.07427251950397e-16
  outer loop
    vertex 1057.604346027883 228.52913778617193 -75.32039955292133
    vertex 1054.9876249004753 228.52913778617187 -70.32039955292133
    vertex 1057.604346027883 228.52913778617193 -70.32039955292133
  endloop
endfacet
facet normal -2.930259621501891e-16 7.07427251950392e-16 1.0
  outer loop
    vertex 1057.604346027883 228.52913778617193 -70.32039955292133
    vertex 1056.613269223088 228.5999260654955 -70.32039955292133
    vertex 1054.9876249004753 228.52913778617187 -70.32039955292133
  endloop
endfacet
facet normal -2.930259621501891e-16 7.07427251950392e-16 1.0
  outer loop
    vertex 1073.8699105770136 218.01802518050823 -70.32039955292132
    vertex 1070.587207920168 220.02913909866166 -70.32039955292133
    vertex 1069.9876249004756 218.52913778617213 -70.32039955292132
  endloop
endfacet
facet normal -2.930259621501891e-16 7.07427251950392e-16 1.0
  outer loop
    vertex 1070.587207920168 220.02913909866166 -70.32039955292133
    vertex 1073.8699105770136 218.01802518050823 -70.32039955292132
    vertex 1071.347193935624 221.45459516297421 -70.32039955292133
  endloop
endfacet
facet normal -2.930259621501891e-16 7.07427251950392e-16 1.0
  outer loop
    vertex 1071.347193935624 221.45459516297421 -70.32039955292133
    vertex 1073.8699105770136 218.01802518050823 -70.32039955292132
    vertex 1072.258471248854 222.78841576311743 -70.32039955292133
  endloop
endfacet
facet normal -2.930259621501891e-16 7.07427251950392e-16 1.0
  outer loop
    vertex 1072.258471248854 222.78841576311743 -70.32039955292133
    vertex 1073.8699105770136 218.01802518050823 -70.32039955292132
    vertex 1073.3101142855787 224.01460932788677 -70.32039955292133
  endloop
endfacet
facet normal -2.930259621501891e-16 7.07427251950392e-16 1.0
  outer loop
    vertex 1073.3101142855787 224.01460932788677 -70.32039955292133
    vertex 1073.8699105770136 218.01802518050823 -70.32039955292132
    vertex 1074.4895145851845 225.11847465856079 -70.32039955292133
  endloop
endfacet
facet normal -2.930259621501891e-16 7.07427251950392e-16 1.0
  outer loop
    vertex 1074.4895145851845 225.11847465856079 -70.32039955292133
    vertex 1073.8699105770136 218.01802518050823 -70.32039955292132
    vertex 1077.4876249004758 216.51951884293882 -70.32039955292132
  endloop
endfacet
facet normal -2.930259621501891e-16 7.07427251950392e-16 1.0
  outer loop
    vertex 1074.4895145851845 225.11847465856079 -70.32039955292133
    vertex 1077.4876249004758 216.51951884293882 -70.32039955292132
    vertex 1075.7825319672988 226.08677718593734 -70.32039955292133
  endloop
endfacet
facet normal -2.930259621501891e-16 7.07427251950392e-16 1.0
  outer loop
    vertex 1075.7825319672988 226.08677718593734 -70.32039955292133
    vertex 1077.4876249004758 216.51951884293882 -70.32039955292132
    vertex 1077.1736640626134 226.90790764351354 -70.32039955292133
  endloop
endfacet
facet normal -2.930259621501891e-16 7.07427251950392e-16 1.0
  outer loop
    vertex 1077.1736640626134 226.90790764351354 -70.32039955292133
    vertex 1077.4876249004758 216.51951884293882 -70.32039955292132
    vertex 1078.6462321753916 227.57202125442885 -70.32039955292133
  endloop
endfacet
facet normal -2.930259621501891e-16 7.07427251950392e-16 1.0
  outer loop
    vertex 1078.6462321753916 227.57202125442885 -70.32039955292133
    vertex 1077.4876249004758 216.51951884293882 -70.32039955292132
    vertex 1080.594226618274 214.1357395039705 -70.32039955292132
  endloop
endfacet
facet normal -2.930259621501891e-16 7.07427251950392e-16 1.0
  outer loop
    vertex 1078.6462321753916 227.57202125442885 -70.32039955292133
    vertex 1080.594226618274 214.1357395039705 -70.32039955292132
    vertex 1080.1825812493037 228.07115576341755 -70.32039955292133
  endloop
endfacet
facet normal -2.930259621501891e-16 7.07427251950392e-16 1.0
  outer loop
    vertex 1080.1825812493037 228.07115576341755 -70.32039955292133
    vertex 1080.594226618274 214.1357395039705 -70.32039955292132
    vertex 1081.7642915391398 228.39932689865162 -70.32039955292133
  endloop
endfacet
facet normal -2.930259621501891e-16 7.07427251950392e-16 1.0
  outer loop
    vertex 1081.7642915391398 228.39932689865162 -70.32039955292133
    vertex 1080.594226618274 214.1357395039705 -70.32039955292132
    vertex 1082.9780059572424 211.02913778617233 -70.32039955292132
  endloop
endfacet
facet normal -2.930259621501891e-16 7.07427251950392e-16 1.0
  outer loop
    vertex 1081.7642915391398 228.39932689865162 -70.32039955292133
    vertex 1082.9780059572424 211.02913778617233 -70.32039955292132
    vertex 1083.1262379692255 228.52913778617233 -70.32039955292133
  endloop
endfacet
facet normal -2.930259621501891e-16 7.07427251950392e-16 1.0
  outer loop
    vertex 1083.1262379692255 228.52913778617233 -70.32039955292133
    vertex 1082.9780059572424 211.02913778617233 -70.32039955292132
    vertex 1084.4765122948118 207.41142346271022 -70.3203995529213
  endloop
endfacet
facet normal -2.930259621501891e-16 7.07427251950392e-16 1.0
  outer loop
    vertex 1083.1262379692255 228.52913778617233 -70.32039955292133
    vertex 1084.4765122948118 207.41142346271022 -70.3203995529213
    vertex 1083.3723994506033 228.55260011895226 -70.32039955292133
  endloop
endfacet
facet normal -2.930259621501891e-16 7.07427251950392e-16 1.0
  outer loop
    vertex 1083.3723994506033 228.55260011895226 -70.32039955292133
    vertex 1084.4765122948118 207.41142346271022 -70.3203995529213
    vertex 1084.9876249004756 228.52913778617238 -70.32039955292133
  endloop
endfacet
facet normal -2.930259621501891e-16 7.07427251950392e-16 1.0
  outer loop
    vertex 1084.9876249004756 228.52913778617238 -70.32039955292133
    vertex 1084.4765122948118 207.41142346271022 -70.3203995529213
    vertex 1084.987624900476 203.52913778617238 -70.3203995529213
  endloop
endfacet
facet normal 0.3826834323651119 -0.9238795325112777 7.657137397853898e-16
  outer loop
    vertex 1077.487624900476 190.53875672940566 -60.3203995529213
    vertex 1073.869910577014 189.04025039183617 -75.32039955292129
    vertex 1077.487624900476 190.53875672940563 -75.32039955292129
  endloop
endfacet
facet normal 0.3826834323651119 -0.9238795325112777 7.657137397853898e-16
  outer loop
    vertex 1073.869910577014 189.04025039183617 -75.32039955292129
    vertex 1077.487624900476 190.53875672940566 -60.3203995529213
    vertex 1073.869910577014 189.04025039183617 -60.3203995529213
  endloop
endfacet
facet normal 0.6087614290087244 -0.7933533402912324 7.417813744694161e-16
  outer loop
    vertex 1080.5942266182744 192.9225360683741 -45.32039955292129
    vertex 1077.487624900476 190.53875672940563 -75.32039955292129
    vertex 1080.5942266182744 192.92253606837406 -75.32039955292129
  endloop
endfacet
facet normal 0.6087614290087244 -0.7933533402912324 7.417813744694161e-16
  outer loop
    vertex 1077.487624900476 190.53875672940563 -75.32039955292129
    vertex 1080.5942266182744 192.9225360683741 -45.32039955292129
    vertex 1077.487624900476 190.53875672940566 -60.3203995529213
  endloop
endfacet
facet normal 0.6087614290087244 -0.7933533402912324 7.417813744694161e-16
  outer loop
    vertex 1077.487624900476 190.53875672940566 -60.3203995529213
    vertex 1080.5942266182744 192.9225360683741 -45.32039955292129
    vertex 1077.487624900476 190.53875672940566 -45.320399552921295
  endloop
endfacet
facet normal -2.930259621501891e-16 7.07427251950392e-16 1.0
  outer loop
    vertex 1055.49873750614 199.64685210963404 -60.32039955292131
    vertex 1055.4987375061398 207.4114234627097 -60.32039955292132
    vertex 1054.987624900476 203.52913778617187 -60.32039955292131
  endloop
endfacet
facet normal -2.930259621501891e-16 7.07427251950392e-16 1.0
  outer loop
    vertex 1055.4987375061398 207.4114234627097 -60.32039955292132
    vertex 1055.49873750614 199.64685210963404 -60.32039955292131
    vertex 1056.9972438437094 211.02913778617193 -60.32039955292132
  endloop
endfacet
facet normal -2.930259621501891e-16 7.07427251950392e-16 1.0
  outer loop
    vertex 1056.9972438437094 211.02913778617193 -60.32039955292132
    vertex 1055.49873750614 199.64685210963404 -60.32039955292131
    vertex 1056.9972438437094 196.0291377861719 -60.32039955292131
  endloop
endfacet
facet normal -2.930259621501891e-16 7.07427251950392e-16 1.0
  outer loop
    vertex 1056.9972438437094 211.02913778617193 -60.32039955292132
    vertex 1056.9972438437094 196.0291377861719 -60.32039955292131
    vertex 1059.3810231826776 214.13573950397017 -60.32039955292132
  endloop
endfacet
facet normal -2.930259621501891e-16 7.07427251950392e-16 1.0
  outer loop
    vertex 1059.3810231826776 214.13573950397017 -60.32039955292132
    vertex 1056.9972438437094 196.0291377861719 -60.32039955292131
    vertex 1059.381023182678 192.92253606837372 -60.3203995529213
  endloop
endfacet
facet normal -2.930259621501891e-16 7.07427251950392e-16 1.0
  outer loop
    vertex 1059.3810231826776 214.13573950397017 -60.32039955292132
    vertex 1059.381023182678 192.92253606837372 -60.3203995529213
    vertex 1062.4876249004758 216.5195188429386 -60.32039955292132
  endloop
endfacet
facet normal -2.930259621501891e-16 7.07427251950392e-16 1.0
  outer loop
    vertex 1062.4876249004758 216.5195188429386 -60.32039955292132
    vertex 1059.381023182678 192.92253606837372 -60.3203995529213
    vertex 1062.487624900476 190.5387567294054 -60.3203995529213
  endloop
endfacet
facet normal -2.930259621501891e-16 7.07427251950392e-16 1.0
  outer loop
    vertex 1062.4876249004758 216.5195188429386 -60.32039955292132
    vertex 1062.487624900476 190.5387567294054 -60.3203995529213
    vertex 1066.1053392239378 218.0180251805081 -60.32039955292132
  endloop
endfacet
facet normal -2.930259621501891e-16 7.07427251950392e-16 1.0
  outer loop
    vertex 1066.1053392239378 218.0180251805081 -60.32039955292132
    vertex 1062.487624900476 190.5387567294054 -60.3203995529213
    vertex 1066.1053392239382 189.04025039183603 -60.3203995529213
  endloop
endfacet
facet normal -2.930259621501891e-16 7.07427251950392e-16 1.0
  outer loop
    vertex 1066.1053392239378 218.0180251805081 -60.32039955292132
    vertex 1066.1053392239382 189.04025039183603 -60.3203995529213
    vertex 1069.9876249004756 218.52913778617216 -60.32039955292132
  endloop
endfacet
facet normal -2.930259621501891e-16 7.07427251950392e-16 1.0
  outer loop
    vertex 1069.9876249004756 218.52913778617216 -60.32039955292132
    vertex 1066.1053392239382 189.04025039183603 -60.3203995529213
    vertex 1069.9876249004762 188.5291377861721 -60.3203995529213
  endloop
endfacet
facet normal -2.930259621501891e-16 7.07427251950392e-16 1.0
  outer loop
    vertex 1069.9876249004756 218.52913778617216 -60.32039955292132
    vertex 1069.9876249004762 188.5291377861721 -60.3203995529213
    vertex 1073.8699105770136 218.01802518050823 -60.32039955292132
  endloop
endfacet
facet normal -2.930259621501891e-16 7.07427251950392e-16 1.0
  outer loop
    vertex 1073.8699105770136 218.01802518050823 -60.32039955292132
    vertex 1069.9876249004762 188.5291377861721 -60.3203995529213
    vertex 1073.869910577014 189.04025039183617 -60.3203995529213
  endloop
endfacet
facet normal -2.930259621501891e-16 7.07427251950392e-16 1.0
  outer loop
    vertex 1073.8699105770136 218.01802518050823 -60.32039955292132
    vertex 1073.869910577014 189.04025039183617 -60.3203995529213
    vertex 1077.4876249004758 216.51951884293882 -60.32039955292132
  endloop
endfacet
facet normal -2.930259621501891e-16 7.07427251950392e-16 1.0
  outer loop
    vertex 1077.4876249004758 216.51951884293882 -60.32039955292132
    vertex 1073.869910577014 189.04025039183617 -60.3203995529213
    vertex 1077.487624900476 190.53875672940566 -60.3203995529213
  endloop
endfacet
facet normal 1.597289181830019e-14 -0.9238795325112898 -0.3826834323650826
  outer loop
    vertex 1085.0170249004752 216.07688234223951 -41.958241532291105
    vertex 1077.4876249004758 214.7791377861723 -38.82520902453801
    vertex 1077.4876249004758 216.0768823422394 -41.95824153229111
  endloop
endfacet
facet normal 1.597289181830019e-14 -0.9238795325112898 -0.3826834323650826
  outer loop
    vertex 1077.4876249004758 214.7791377861723 -38.82520902453801
    vertex 1085.0170249004752 216.07688234223951 -41.958241532291105
    vertex 1085.0170249004752 214.77913778617244 -38.825209024538005
  endloop
endfacet
facet normal -1.1928387366211994e-16 1.0812270467356898e-15 1.0
  outer loop
    vertex 1080.594226618274 214.13573950397057 -45.320399552921295
    vertex 1085.0170249004752 216.51951884293896 -45.320399552921316
    vertex 1077.4876249004758 216.51951884293888 -45.320399552921316
  endloop
endfacet
facet normal -1.1928387366211994e-16 1.0812270467356898e-15 1.0
  outer loop
    vertex 1085.0170249004752 216.51951884293896 -45.320399552921316
    vertex 1080.594226618274 214.13573950397057 -45.320399552921295
    vertex 1082.9780059572424 211.02913778617238 -45.320399552921295
  endloop
endfacet
facet normal -1.1928387366211994e-16 1.0812270467356898e-15 1.0
  outer loop
    vertex 1085.0170249004752 216.51951884293896 -45.320399552921316
    vertex 1082.9780059572424 211.02913778617238 -45.320399552921295
    vertex 1084.4765122948118 207.41142346271022 -45.320399552921295
  endloop
endfacet
facet normal -1.1928387366211994e-16 1.0812270467356898e-15 1.0
  outer loop
    vertex 1085.0170249004752 216.51951884293896 -45.320399552921316
    vertex 1084.4765122948118 207.41142346271022 -45.320399552921295
    vertex 1084.987624900476 203.5291377861724 -45.320399552921295
  endloop
endfacet
facet normal -1.1928387366211994e-16 1.0812270467356898e-15 1.0
  outer loop
    vertex 1085.0170249004752 216.51951884293896 -45.320399552921316
    vertex 1084.987624900476 203.5291377861724 -45.320399552921295
    vertex 1085.0170249004757 203.5291377861724 -45.3203995529213
  endloop
endfacet
facet normal 2.531335085018151e-15 -0.13052619222005307 -0.9914448613738102
  outer loop
    vertex 1085.0170249004755 206.8912958068026 -32.77265499685417
    vertex 1077.487624900476 203.52913778617227 -32.33001849615471
    vertex 1077.487624900476 206.89129580680247 -32.77265499685418
  endloop
endfacet
facet normal 2.531335085018151e-15 -0.13052619222005307 -0.9914448613738102
  outer loop
    vertex 1077.487624900476 203.52913778617227 -32.33001849615471
    vertex 1085.0170249004755 206.8912958068026 -32.77265499685417
    vertex 1085.0170249004757 203.5291377861724 -32.33001849615471
  endloop
endfacet
facet normal 1.3798322540192402e-14 -0.7933533402912348 -0.6087614290087212
  outer loop
    vertex 1085.0170249004752 214.77913778617244 -38.825209024538005
    vertex 1077.487624900476 212.71472432160922 -36.13481301748438
    vertex 1077.4876249004758 214.7791377861723 -38.82520902453801
  endloop
endfacet
facet normal 1.3798322540192402e-14 -0.7933533402912348 -0.6087614290087212
  outer loop
    vertex 1077.487624900476 212.71472432160922 -36.13481301748438
    vertex 1085.0170249004752 214.77913778617244 -38.825209024538005
    vertex 1085.0170249004755 212.71472432160934 -36.13481301748438
  endloop
endfacet
facet normal 1.0683420383776677e-14 -0.6087614290087183 -0.7933533402912369
  outer loop
    vertex 1085.0170249004755 212.71472432160934 -36.13481301748438
    vertex 1077.487624900476 210.02432831455556 -34.070399552921295
    vertex 1077.487624900476 212.71472432160922 -36.13481301748438
  endloop
endfacet
facet normal 1.0683420383776677e-14 -0.6087614290087183 -0.7933533402912369
  outer loop
    vertex 1077.487624900476 210.02432831455556 -34.070399552921295
    vertex 1085.0170249004755 212.71472432160934 -36.13481301748438
    vertex 1085.0170249004755 210.0243283145557 -34.070399552921295
  endloop
endfacet
facet normal -1.0 -1.5182816514506444e-14 3.7188043437609066e-15
  outer loop
    vertex 1085.0170249004757 190.98139323010528 -41.95824153229109
    vertex 1085.0170249004757 203.5291377861724 -45.3203995529213
    vertex 1085.0170249004757 190.5387567294058 -45.320399552921295
  endloop
endfacet
facet normal -1.0 -1.5182816514506444e-14 3.7188043437609066e-15
  outer loop
    vertex 1085.0170249004757 203.5291377861724 -45.3203995529213
    vertex 1085.0170249004757 190.98139323010528 -41.95824153229109
    vertex 1085.0170249004757 192.27913778617238 -38.825209024538
  endloop
endfacet
facet normal -1.0 -1.5182816514506444e-14 3.7188043437609066e-15
  outer loop
    vertex 1085.0170249004757 203.5291377861724 -45.3203995529213
    vertex 1085.0170249004757 192.27913778617238 -38.825209024538
    vertex 1085.0170249004757 194.34355125073546 -36.13481301748437
  endloop
endfacet
facet normal -1.0 -1.5182816514506444e-14 3.7188043437609066e-15
  outer loop
    vertex 1085.0170249004757 203.5291377861724 -45.3203995529213
    vertex 1085.0170249004757 194.34355125073546 -36.13481301748437
    vertex 1085.0170249004757 197.03394725778907 -34.07039955292129
  endloop
endfacet
facet normal -1.0 -1.5182816514506444e-14 3.7188043437609066e-15
  outer loop
    vertex 1085.0170249004757 203.5291377861724 -45.3203995529213
    vertex 1085.0170249004757 197.03394725778907 -34.07039955292129
    vertex 1085.0170249004757 200.16697976554218 -32.772654996854165
  endloop
endfacet
facet normal -1.0 -1.5182816514506444e-14 3.7188043437609066e-15
  outer loop
    vertex 1085.0170249004757 203.5291377861724 -45.3203995529213
    vertex 1085.0170249004757 200.16697976554218 -32.772654996854165
    vertex 1085.0170249004757 203.5291377861724 -32.33001849615471
  endloop
endfacet
facet normal -1.0 -1.5182816514506444e-14 3.7188043437609066e-15
  outer loop
    vertex 1085.0170249004757 203.5291377861724 -45.3203995529213
    vertex 1085.0170249004757 203.5291377861724 -32.33001849615471
    vertex 1085.0170249004755 206.8912958068026 -32.77265499685417
  endloop
endfacet
facet normal -1.0 -1.5182816514506444e-14 3.7188043437609066e-15
  outer loop
    vertex 1085.0170249004757 203.5291377861724 -45.3203995529213
    vertex 1085.0170249004755 206.8912958068026 -32.77265499685417
    vertex 1085.0170249004752 216.51951884293896 -45.320399552921316
  endloop
endfacet
facet normal -1.0 -1.5182816514506444e-14 3.7188043437609066e-15
  outer loop
    vertex 1085.0170249004752 216.51951884293896 -45.320399552921316
    vertex 1085.0170249004755 206.8912958068026 -32.77265499685417
    vertex 1085.0170249004755 210.0243283145557 -34.070399552921295
  endloop
endfacet
facet normal -1.0 -1.5182816514506444e-14 3.7188043437609066e-15
  outer loop
    vertex 1085.0170249004752 216.51951884293896 -45.320399552921316
    vertex 1085.0170249004755 210.0243283145557 -34.070399552921295
    vertex 1085.0170249004755 212.71472432160934 -36.13481301748438
  endloop
endfacet
facet normal -1.0 -1.5182816514506444e-14 3.7188043437609066e-15
  outer loop
    vertex 1085.0170249004752 216.51951884293896 -45.320399552921316
    vertex 1085.0170249004755 212.71472432160934 -36.13481301748438
    vertex 1085.0170249004752 214.77913778617244 -38.825209024538005
  endloop
endfacet
facet normal -1.0 -1.5182816514506444e-14 3.7188043437609066e-15
  outer loop
    vertex 1085.0170249004752 216.51951884293896 -45.320399552921316
    vertex 1085.0170249004752 214.77913778617244 -38.825209024538005
    vertex 1085.0170249004752 216.07688234223951 -41.958241532291105
  endloop
endfacet
facet normal -1.0 -1.5182816514506444e-14 3.7188043437609066e-15
  outer loop
    vertex 1077.4876249004762 190.98139323010514 -41.95824153229109
    vertex 1077.487624900476 203.52913778617227 -45.3203995529213
    vertex 1077.487624900476 190.53875672940566 -45.320399552921295
  endloop
endfacet
facet normal -1.0 -1.5182816514506444e-14 3.7188043437609066e-15
  outer loop
    vertex 1077.487624900476 203.52913778617227 -45.3203995529213
    vertex 1077.4876249004762 190.98139323010514 -41.95824153229109
    vertex 1077.4876249004762 192.27913778617224 -38.825209024538005
  endloop
endfacet
facet normal -1.0 -1.5182816514506444e-14 3.7188043437609066e-15
  outer loop
    vertex 1077.487624900476 203.52913778617227 -45.3203995529213
    vertex 1077.4876249004762 192.27913778617224 -38.825209024538005
    vertex 1077.487624900476 194.34355125073535 -36.13481301748437
  endloop
endfacet
facet normal -1.0 -1.5182816514506444e-14 3.7188043437609066e-15
  outer loop
    vertex 1077.487624900476 203.52913778617227 -45.3203995529213
    vertex 1077.487624900476 194.34355125073535 -36.13481301748437
    vertex 1077.487624900476 197.03394725778895 -34.07039955292129
  endloop
endfacet
facet normal -1.0 -1.5182816514506444e-14 3.7188043437609066e-15
  outer loop
    vertex 1077.487624900476 203.52913778617227 -45.3203995529213
    vertex 1077.487624900476 197.03394725778895 -34.07039955292129
    vertex 1077.487624900476 200.16697976554207 -32.77265499685417
  endloop
endfacet
facet normal -1.0 -1.5182816514506444e-14 3.7188043437609066e-15
  outer loop
    vertex 1077.487624900476 203.52913778617227 -45.3203995529213
    vertex 1077.487624900476 200.16697976554207 -32.77265499685417
    vertex 1077.487624900476 203.52913778617227 -32.33001849615471
  endloop
endfacet
facet normal -1.0 -1.5182816514506444e-14 3.7188043437609066e-15
  outer loop
    vertex 1077.487624900476 203.52913778617227 -45.3203995529213
    vertex 1077.487624900476 203.52913778617227 -32.33001849615471
    vertex 1077.487624900476 206.89129580680247 -32.77265499685418
  endloop
endfacet
facet normal -1.0 -1.5182816514506444e-14 3.7188043437609066e-15
  outer loop
    vertex 1077.487624900476 203.52913778617227 -45.3203995529213
    vertex 1077.487624900476 206.89129580680247 -32.77265499685418
    vertex 1077.4876249004758 216.51951884293888 -45.320399552921316
  endloop
endfacet
facet normal -1.0 -1.5182816514506444e-14 3.7188043437609066e-15
  outer loop
    vertex 1077.4876249004758 216.51951884293888 -45.320399552921316
    vertex 1077.487624900476 206.89129580680247 -32.77265499685418
    vertex 1077.487624900476 210.02432831455556 -34.070399552921295
  endloop
endfacet
facet normal -1.0 -1.5182816514506444e-14 3.7188043437609066e-15
  outer loop
    vertex 1077.4876249004758 216.51951884293888 -45.320399552921316
    vertex 1077.487624900476 210.02432831455556 -34.070399552921295
    vertex 1077.487624900476 212.71472432160922 -36.13481301748438
  endloop
endfacet
facet normal -1.0 -1.5182816514506444e-14 3.7188043437609066e-15
  outer loop
    vertex 1077.4876249004758 216.51951884293888 -45.320399552921316
    vertex 1077.487624900476 212.71472432160922 -36.13481301748438
    vertex 1077.4876249004758 214.7791377861723 -38.82520902453801
  endloop
endfacet
facet normal -1.0 -1.5182816514506444e-14 3.7188043437609066e-15
  outer loop
    vertex 1077.4876249004758 216.51951884293888 -45.320399552921316
    vertex 1077.4876249004758 214.7791377861723 -38.82520902453801
    vertex 1077.4876249004758 216.0768823422394 -41.95824153229111
  endloop
endfacet
facet normal 1.7167558192592238e-14 -1.0 7.07427251950397e-16
  outer loop
    vertex 1077.4876249004758 216.51951884293888 -45.320399552921316
    vertex 1077.4876249004758 216.51951884293882 -60.32039955292132
    vertex 1085.0170249004752 216.51951884293896 -45.320399552921316
  endloop
endfacet
facet normal -0.8937254124705303 -8.82051912142833e-15 0.4486144080436793
  outer loop
    vertex 1085.0170249004757 190.5387567294058 -45.320399552921295
    vertex 1077.4876249004758 216.51951884293882 -60.32039955292132
    vertex 1077.487624900476 190.53875672940566 -60.3203995529213
  endloop
endfacet
facet normal -0.8937254124705303 -8.82051912142833e-15 0.4486144080436793
  outer loop
    vertex 1077.4876249004758 216.51951884293882 -60.32039955292132
    vertex 1085.0170249004757 190.5387567294058 -45.320399552921295
    vertex 1085.0170249004757 203.5291377861724 -45.3203995529213
  endloop
endfacet
facet normal -0.8937254124705303 -8.82051912142833e-15 0.4486144080436793
  outer loop
    vertex 1077.4876249004758 216.51951884293882 -60.32039955292132
    vertex 1085.0170249004757 203.5291377861724 -45.3203995529213
    vertex 1085.0170249004752 216.51951884293896 -45.320399552921316
  endloop
endfacet
endsolid coin-bank
