solid coin-bank
facet normal 0.9448822664693661 1.8855707923994868e-13 0.32741029689323126
  outer loop
    vertex 1106.5729755709062 212.82018047623993 165.82742609005672
    vertex 1104.7914761066252 217.3715764762395 170.9687037697616
    vertex 1104.7914761066263 212.82018047623953 170.9687037697616
  endloop
endfacet
facet normal 0.9448822664693661 1.8855707923994868e-13 0.32741029689323126
  outer loop
    vertex 1104.7914761066252 217.3715764762395 170.9687037697616
    vertex 1106.5729755709062 212.82018047623993 165.82742609005672
    vertex 1106.5729755709053 217.3715764762399 165.82742609005672
  endloop
endfacet
facet normal 1.995538449735429e-13 -1.0 5.6820827319218574e-27
  outer loop
    vertex 1084.2704779911705 212.82018047623546 134.65710908972076
    vertex 1077.2940023393123 212.82018047623407 140.65580736583723
    vertex 1077.2940023393123 212.82018047623407 132.53780736583724
  endloop
endfacet
facet normal 1.995538449735429e-13 -1.0 5.6820827319218574e-27
  outer loop
    vertex 1077.2940023393123 212.82018047623407 140.65580736583723
    vertex 1084.2704779911705 212.82018047623546 134.65710908972076
    vertex 1085.2686085450207 212.8201804762357 135.11788638965118
  endloop
endfacet
facet normal 1.995538449735429e-13 -1.0 5.6820827319218574e-27
  outer loop
    vertex 1077.2940023393123 212.82018047623407 140.65580736583723
    vertex 1085.2686085450207 212.8201804762357 135.11788638965118
    vertex 1089.269559790045 212.82018047623646 136.9648867692353
  endloop
endfacet
facet normal 1.995538449735429e-13 -1.0 5.6820827319218574e-27
  outer loop
    vertex 1077.2940023393123 212.82018047623407 140.65580736583723
    vertex 1089.269559790045 212.82018047623646 136.9648867692353
    vertex 1090.6119152800154 212.82018047623671 137.58457217594847
  endloop
endfacet
facet normal 1.995538449735429e-13 -1.0 5.6820827319218574e-27
  outer loop
    vertex 1077.2940023393123 212.82018047623407 140.65580736583723
    vertex 1090.6119152800154 212.82018047623671 137.58457217594847
    vertex 1096.1260966921675 212.8201804762378 141.2314612716034
  endloop
endfacet
facet normal 1.995538449735429e-13 -1.0 5.6820827319218574e-27
  outer loop
    vertex 1077.2940023393123 212.82018047623407 140.65580736583723
    vertex 1063.735759047243 212.8201804762314 144.80679750562823
    vertex 1065.6040823393123 212.82018047623177 140.6558073658369
  endloop
endfacet
facet normal 1.995538449735429e-13 -1.0 5.6820827319218574e-27
  outer loop
    vertex 1063.735759047243 212.8201804762314 144.80679750562823
    vertex 1077.2940023393123 212.82018047623407 140.65580736583723
    vertex 1096.1260966921675 212.8201804762378 141.2314612716034
  endloop
endfacet
facet normal 1.995538449735429e-13 -1.0 5.6820827319218574e-27
  outer loop
    vertex 1063.735759047243 212.8201804762314 144.80679750562823
    vertex 1096.1260966921675 212.8201804762378 141.2314612716034
    vertex 1100.6458799548657 212.8201804762387 145.48723425150072
  endloop
endfacet
facet normal 1.995538449735429e-13 -1.0 5.6820827319218574e-27
  outer loop
    vertex 1063.735759047243 212.8201804762314 144.80679750562823
    vertex 1100.6458799548657 212.8201804762387 145.48723425150072
    vertex 1062.64876620452 212.82018047623112 149.08981972902689
  endloop
endfacet
facet normal 1.995538449735429e-13 -1.0 5.6820827319218574e-27
  outer loop
    vertex 1062.64876620452 212.82018047623112 149.08981972902689
    vertex 1100.6458799548657 212.8201804762387 145.48723425150072
    vertex 1104.0342643438962 212.8201804762394 150.22289289903404
  endloop
endfacet
facet normal 1.995538449735429e-13 -1.0 5.6820827319218574e-27
  outer loop
    vertex 1062.64876620452 212.82018047623112 149.08981972902689
    vertex 1104.0342643438962 212.8201804762394 150.22289289903404
    vertex 1062.3610250888235 212.8201804762311 153.43425974350342
  endloop
endfacet
facet normal 1.995538449735429e-13 -1.0 5.6820827319218574e-27
  outer loop
    vertex 1062.3610250888235 212.8201804762311 153.43425974350342
    vertex 1104.0342643438962 212.8201804762394 150.22289289903404
    vertex 1106.188543360245 212.82018047623984 155.29489301603397
  endloop
endfacet
facet normal 1.995538449735429e-13 -1.0 5.6820827319218574e-27
  outer loop
    vertex 1062.3610250888235 212.8201804762311 153.43425974350342
    vertex 1106.188543360245 212.82018047623984 155.29489301603397
    vertex 1062.8772796949909 212.82018047623117 157.76849065989936
  endloop
endfacet
facet normal 1.995538449735429e-13 -1.0 5.6820827319218574e-27
  outer loop
    vertex 1062.8772796949909 212.82018047623117 157.76849065989936
    vertex 1106.188543360245 212.82018047623984 155.29489301603397
    vertex 1107.0434179025515 212.82018047624 160.54949544094015
  endloop
endfacet
facet normal 1.995538449735429e-13 -1.0 5.6820827319218574e-27
  outer loop
    vertex 1062.8772796949909 212.82018047623117 157.76849065989936
    vertex 1107.0434179025515 212.82018047624 160.54949544094015
    vertex 1064.189018520658 212.82018047623143 162.02105390670692
  endloop
endfacet
facet normal 1.995538449735429e-13 -1.0 5.6820827319218574e-27
  outer loop
    vertex 1064.189018520658 212.82018047623143 162.02105390670692
    vertex 1107.0434179025515 212.82018047624 160.54949544094015
    vertex 1106.5729755709062 212.82018047623993 165.82742609005672
  endloop
endfacet
facet normal 1.995538449735429e-13 -1.0 5.6820827319218574e-27
  outer loop
    vertex 1064.189018520658 212.82018047623143 162.02105390670692
    vertex 1106.5729755709062 212.82018047623993 165.82742609005672
    vertex 1066.2746148956078 212.82018047623185 166.12183736929137
  endloop
endfacet
facet normal 1.995538449735429e-13 -1.0 5.6820827319218574e-27
  outer loop
    vertex 1066.2746148956078 212.82018047623185 166.12183736929137
    vertex 1106.5729755709062 212.82018047623993 165.82742609005672
    vertex 1104.7914761066263 212.82018047623953 170.9687037697616
  endloop
endfacet
facet normal 1.995538449735429e-13 -1.0 5.6820827319218574e-27
  outer loop
    vertex 1066.2746148956078 212.82018047623185 166.12183736929137
    vertex 1104.7914761066263 212.82018047623953 170.9687037697616
    vertex 1069.0996835412132 212.82018047623242 170.0032313300461
  endloop
endfacet
facet normal 1.995538449735429e-13 -1.0 5.6820827319218574e-27
  outer loop
    vertex 1069.0996835412132 212.82018047623242 170.0032313300461
    vertex 1104.7914761066263 212.82018047623953 170.9687037697616
    vertex 1072.6176474813683 212.8201804762331 173.60124315146638
  endloop
endfacet
facet normal 1.995538449735429e-13 -1.0 5.6820827319218574e-27
  outer loop
    vertex 1072.6176474813683 212.8201804762331 173.60124315146638
    vertex 1104.7914761066263 212.82018047623953 170.9687037697616
    vertex 1101.752919160272 212.82018047623893 175.81748942216925
  endloop
endfacet
facet normal 1.995538449735429e-13 -1.0 5.6820827319218574e-27
  outer loop
    vertex 1072.6176474813683 212.8201804762331 173.60124315146638
    vertex 1101.752919160272 212.82018047623893 175.81748942216925
    vertex 1076.7705059582397 212.82018047623396 176.8565523243348
  endloop
endfacet
facet normal 1.995538449735429e-13 -1.0 5.6820827319218574e-27
  outer loop
    vertex 1076.7705059582397 212.82018047623396 176.8565523243348
    vertex 1101.752919160272 212.82018047623893 175.81748942216925
    vertex 1097.5494074894361 212.8201804762381 180.2268098170762
  endloop
endfacet
facet normal 1.995538449735429e-13 -1.0 5.6820827319218574e-27
  outer loop
    vertex 1076.7705059582397 212.82018047623396 176.8565523243348
    vertex 1097.5494074894361 212.8201804762381 180.2268098170762
    vertex 1081.489790692182 212.82018047623487 179.71548848641248
  endloop
endfacet
facet normal 1.995538449735429e-13 -1.0 5.6820827319218574e-27
  outer loop
    vertex 1081.489790692182 212.82018047623487 179.71548848641248
    vertex 1097.5494074894361 212.8201804762381 180.2268098170762
    vertex 1086.6976947199453 212.82018047623592 182.130916287019
  endloop
endfacet
facet normal 1.995538449735429e-13 -1.0 5.6820827319218574e-27
  outer loop
    vertex 1086.6976947199453 212.82018047623592 182.130916287019
    vertex 1097.5494074894361 212.8201804762381 180.2268098170762
    vertex 1092.3083551999896 212.82018047623708 184.063012508716
  endloop
endfacet
facet normal -1.995538449735429e-13 1.0 -5.6820827319218574e-27
  outer loop
    vertex 1063.7357590472418 217.3715764762313 144.80679750562823
    vertex 1077.2940023393114 217.3715764762341 140.65580736583723
    vertex 1065.6040823393112 217.3715764762317 140.6558073658369
  endloop
endfacet
facet normal -1.995538449735429e-13 1.0 -5.6820827319218574e-27
  outer loop
    vertex 1077.2940023393114 217.3715764762341 140.65580736583723
    vertex 1063.7357590472418 217.3715764762313 144.80679750562823
    vertex 1096.1260966921664 217.3715764762378 141.2314612716034
  endloop
endfacet
facet normal -1.995538449735429e-13 1.0 -5.6820827319218574e-27
  outer loop
    vertex 1096.1260966921664 217.3715764762378 141.2314612716034
    vertex 1063.7357590472418 217.3715764762313 144.80679750562823
    vertex 1100.645879954865 217.37157647623872 145.48723425150072
  endloop
endfacet
facet normal -1.995538449735429e-13 1.0 -5.6820827319218574e-27
  outer loop
    vertex 1100.645879954865 217.37157647623872 145.48723425150072
    vertex 1063.7357590472418 217.3715764762313 144.80679750562823
    vertex 1062.648766204519 217.37157647623113 149.08981972902689
  endloop
endfacet
facet normal -1.995538449735429e-13 1.0 -5.6820827319218574e-27
  outer loop
    vertex 1100.645879954865 217.37157647623872 145.48723425150072
    vertex 1062.648766204519 217.37157647623113 149.08981972902689
    vertex 1104.034264343895 217.37157647623943 150.22289289903404
  endloop
endfacet
facet normal -1.995538449735429e-13 1.0 -5.6820827319218574e-27
  outer loop
    vertex 1104.034264343895 217.37157647623943 150.22289289903404
    vertex 1062.648766204519 217.37157647623113 149.08981972902689
    vertex 1062.3610250888228 217.37157647623107 153.43425974350342
  endloop
endfacet
facet normal -1.995538449735429e-13 1.0 -5.6820827319218574e-27
  outer loop
    vertex 1104.034264343895 217.37157647623943 150.22289289903404
    vertex 1062.3610250888228 217.37157647623107 153.43425974350342
    vertex 1106.1885433602438 217.37157647623982 155.29489301603397
  endloop
endfacet
facet normal -1.995538449735429e-13 1.0 -5.6820827319218574e-27
  outer loop
    vertex 1106.1885433602438 217.37157647623982 155.29489301603397
    vertex 1062.3610250888228 217.37157647623107 153.43425974350342
    vertex 1062.87727969499 217.37157647623116 157.76849065989936
  endloop
endfacet
facet normal -1.995538449735429e-13 1.0 -5.6820827319218574e-27
  outer loop
    vertex 1106.1885433602438 217.37157647623982 155.29489301603397
    vertex 1062.87727969499 217.37157647623116 157.76849065989936
    vertex 1107.0434179025508 217.37157647624002 160.54949544094015
  endloop
endfacet
facet normal -1.995538449735429e-13 1.0 -5.6820827319218574e-27
  outer loop
    vertex 1107.0434179025508 217.37157647624002 160.54949544094015
    vertex 1062.87727969499 217.37157647623116 157.76849065989936
    vertex 1064.1890185206569 217.37157647623138 162.02105390670692
  endloop
endfacet
facet normal -1.995538449735429e-13 1.0 -5.6820827319218574e-27
  outer loop
    vertex 1107.0434179025508 217.37157647624002 160.54949544094015
    vertex 1064.1890185206569 217.37157647623138 162.02105390670692
    vertex 1106.5729755709053 217.3715764762399 165.82742609005672
  endloop
endfacet
facet normal -1.995538449735429e-13 1.0 -5.6820827319218574e-27
  outer loop
    vertex 1106.5729755709053 217.3715764762399 165.82742609005672
    vertex 1064.1890185206569 217.37157647623138 162.02105390670692
    vertex 1066.2746148956069 217.37157647623184 166.12183736929137
  endloop
endfacet
facet normal -1.995538449735429e-13 1.0 -5.6820827319218574e-27
  outer loop
    vertex 1106.5729755709053 217.3715764762399 165.82742609005672
    vertex 1066.2746148956069 217.37157647623184 166.12183736929137
    vertex 1104.7914761066252 217.3715764762395 170.9687037697616
  endloop
endfacet
facet normal -1.995538449735429e-13 1.0 -5.6820827319218574e-27
  outer loop
    vertex 1104.7914761066252 217.3715764762395 170.9687037697616
    vertex 1066.2746148956069 217.37157647623184 166.12183736929137
    vertex 1069.0996835412122 217.37157647623243 170.0032313300461
  endloop
endfacet
facet normal -1.995538449735429e-13 1.0 -5.6820827319218574e-27
  outer loop
    vertex 1104.7914761066252 217.3715764762395 170.9687037697616
    vertex 1069.0996835412122 217.37157647623243 170.0032313300461
    vertex 1072.6176474813674 217.37157647623312 173.60124315146638
  endloop
endfacet
facet normal -1.995538449735429e-13 1.0 -5.6820827319218574e-27
  outer loop
    vertex 1104.7914761066252 217.3715764762395 170.9687037697616
    vertex 1072.6176474813674 217.37157647623312 173.60124315146638
    vertex 1101.7529191602712 217.3715764762389 175.81748942216925
  endloop
endfacet
facet normal -1.995538449735429e-13 1.0 -5.6820827319218574e-27
  outer loop
    vertex 1101.7529191602712 217.3715764762389 175.81748942216925
    vertex 1072.6176474813674 217.37157647623312 173.60124315146638
    vertex 1076.7705059582388 217.37157647623397 176.8565523243348
  endloop
endfacet
facet normal -1.995538449735429e-13 1.0 -5.6820827319218574e-27
  outer loop
    vertex 1101.7529191602712 217.3715764762389 175.81748942216925
    vertex 1076.7705059582388 217.37157647623397 176.8565523243348
    vertex 1097.5494074894355 217.37157647623812 180.2268098170762
  endloop
endfacet
facet normal -1.995538449735429e-13 1.0 -5.6820827319218574e-27
  outer loop
    vertex 1097.5494074894355 217.37157647623812 180.2268098170762
    vertex 1076.7705059582388 217.37157647623397 176.8565523243348
    vertex 1081.4897906921808 217.37157647623488 179.71548848641248
  endloop
endfacet
facet normal -1.995538449735429e-13 1.0 -5.6820827319218574e-27
  outer loop
    vertex 1097.5494074894355 217.37157647623812 180.2268098170762
    vertex 1081.4897906921808 217.37157647623488 179.71548848641248
    vertex 1086.6976947199441 217.3715764762359 182.130916287019
  endloop
endfacet
facet normal -1.995538449735429e-13 1.0 -5.6820827319218574e-27
  outer loop
    vertex 1097.5494074894355 217.37157647623812 180.2268098170762
    vertex 1086.6976947199441 217.3715764762359 182.130916287019
    vertex 1092.3083551999887 217.37157647623704 184.063012508716
  endloop
endfacet
facet normal -1.995538449735429e-13 1.0 -5.6820827319218574e-27
  outer loop
    vertex 1077.2940023393114 217.3715764762341 140.65580736583723
    vertex 1084.2704779911696 217.37157647623545 134.65710908972076
    vertex 1077.2940023393114 217.3715764762341 132.53780736583724
  endloop
endfacet
facet normal -1.995538449735429e-13 1.0 -5.6820827319218574e-27
  outer loop
    vertex 1084.2704779911696 217.37157647623545 134.65710908972076
    vertex 1077.2940023393114 217.3715764762341 140.65580736583723
    vertex 1085.2686085450198 217.37157647623567 135.11788638965118
  endloop
endfacet
facet normal -1.995538449735429e-13 1.0 -5.6820827319218574e-27
  outer loop
    vertex 1085.2686085450198 217.37157647623567 135.11788638965118
    vertex 1077.2940023393114 217.3715764762341 140.65580736583723
    vertex 1089.269559790044 217.37157647623644 136.9648867692353
  endloop
endfacet
facet normal -1.995538449735429e-13 1.0 -5.6820827319218574e-27
  outer loop
    vertex 1089.269559790044 217.37157647623644 136.9648867692353
    vertex 1077.2940023393114 217.3715764762341 140.65580736583723
    vertex 1090.6119152800145 217.37157647623675 137.58457217594847
  endloop
endfacet
facet normal -1.995538449735429e-13 1.0 -5.6820827319218574e-27
  outer loop
    vertex 1090.6119152800145 217.37157647623675 137.58457217594847
    vertex 1077.2940023393114 217.3715764762341 140.65580736583723
    vertex 1096.1260966921664 217.3715764762378 141.2314612716034
  endloop
endfacet
facet normal -1.0 -1.9955616263654369e-13 -3.283644467444442e-14
  outer loop
    vertex 1077.2940023393114 217.3715764762341 140.65580736583723
    vertex 1077.2940023393123 212.82018047623407 132.53780736583724
    vertex 1077.2940023393123 212.82018047623407 140.65580736583723
  endloop
endfacet
facet normal -1.0 -1.9955616263654369e-13 -3.283644467444442e-14
  outer loop
    vertex 1077.2940023393123 212.82018047623407 132.53780736583724
    vertex 1077.2940023393114 217.3715764762341 140.65580736583723
    vertex 1077.2940023393114 217.3715764762341 132.53780736583724
  endloop
endfacet
facet normal 0.2906628123901354 5.800355546171558e-14 -0.9568255480982188
  outer loop
    vertex 1084.2704779911696 217.37157647623545 134.65710908972076
    vertex 1077.2940023393123 212.82018047623407 132.53780736583724
    vertex 1077.2940023393114 217.3715764762341 132.53780736583724
  endloop
endfacet
facet normal 0.2906628123901354 5.800355546171558e-14 -0.9568255480982188
  outer loop
    vertex 1077.2940023393123 212.82018047623407 132.53780736583724
    vertex 1084.2704779911696 217.37157647623545 134.65710908972076
    vertex 1084.2704779911705 212.82018047623546 134.65710908972076
  endloop
endfacet
facet normal 0.41913440913605143 8.364085431612034e-14 -0.9079241967687463
  outer loop
    vertex 1085.2686085450198 217.37157647623567 135.11788638965118
    vertex 1084.2704779911705 212.82018047623546 134.65710908972076
    vertex 1084.2704779911696 217.37157647623545 134.65710908972076
  endloop
endfacet
facet normal 0.41913440913605143 8.364085431612034e-14 -0.9079241967687463
  outer loop
    vertex 1084.2704779911705 212.82018047623546 134.65710908972076
    vertex 1085.2686085450198 217.37157647623567 135.11788638965118
    vertex 1085.2686085450207 212.8201804762357 135.11788638965118
  endloop
endfacet
facet normal 0.41913440913605515 8.364085431612108e-14 -0.9079241967687445
  outer loop
    vertex 1089.269559790044 217.37157647623644 136.9648867692353
    vertex 1085.2686085450207 212.8201804762357 135.11788638965118
    vertex 1085.2686085450198 217.37157647623567 135.11788638965118
  endloop
endfacet
facet normal 0.41913440913605515 8.364085431612108e-14 -0.9079241967687445
  outer loop
    vertex 1085.2686085450207 212.8201804762357 135.11788638965118
    vertex 1089.269559790044 217.37157647623644 136.9648867692353
    vertex 1089.269559790045 212.82018047623646 136.9648867692353
  endloop
endfacet
facet normal 0.4191344091360494 8.364085431611995e-14 -0.9079241967687471
  outer loop
    vertex 1090.6119152800145 217.37157647623675 137.58457217594847
    vertex 1089.269559790045 212.82018047623646 136.9648867692353
    vertex 1089.269559790044 217.37157647623644 136.9648867692353
  endloop
endfacet
facet normal 0.4191344091360494 8.364085431611995e-14 -0.9079241967687471
  outer loop
    vertex 1089.269559790045 212.82018047623646 136.9648867692353
    vertex 1090.6119152800145 217.37157647623675 137.58457217594847
    vertex 1090.6119152800154 212.82018047623671 137.58457217594847
  endloop
endfacet
facet normal 0.551635290266113 1.1008222170039667e-13 -0.8340854311957626
  outer loop
    vertex 1096.1260966921664 217.3715764762378 141.2314612716034
    vertex 1090.6119152800154 212.82018047623671 137.58457217594847
    vertex 1090.6119152800145 217.37157647623675 137.58457217594847
  endloop
endfacet
facet normal 0.551635290266113 1.1008222170039667e-13 -0.8340854311957626
  outer loop
    vertex 1090.6119152800154 212.82018047623671 137.58457217594847
    vertex 1096.1260966921664 217.3715764762378 141.2314612716034
    vertex 1096.1260966921675 212.8201804762378 141.2314612716034
  endloop
endfacet
facet normal 0.6855235006539577 1.3680043918766977e-13 -0.7280504996572308
  outer loop
    vertex 1100.645879954865 217.37157647623872 145.48723425150072
    vertex 1096.1260966921675 212.8201804762378 141.2314612716034
    vertex 1096.1260966921664 217.3715764762378 141.2314612716034
  endloop
endfacet
facet normal 0.6855235006539577 1.3680043918766977e-13 -0.7280504996572308
  outer loop
    vertex 1096.1260966921675 212.8201804762378 141.2314612716034
    vertex 1100.645879954865 217.37157647623872 145.48723425150072
    vertex 1100.6458799548657 212.8201804762387 145.48723425150072
  endloop
endfacet
facet normal 0.8132644536255622 1.6229193357421918e-13 -0.5818942588384214
  outer loop
    vertex 1100.645879954865 217.37157647623872 145.48723425150072
    vertex 1104.0342643438962 212.8201804762394 150.22289289903404
    vertex 1100.6458799548657 212.8201804762387 145.48723425150072
  endloop
endfacet
facet normal 0.8132644536255622 1.6229193357421918e-13 -0.5818942588384214
  outer loop
    vertex 1104.0342643438962 212.8201804762394 150.22289289903404
    vertex 1100.645879954865 217.37157647623872 145.48723425150072
    vertex 1104.034264343895 217.37157647623943 150.22289289903404
  endloop
endfacet
facet normal 0.920417193161086 1.8367492309192248e-13 -0.39093757881977553
  outer loop
    vertex 1104.034264343895 217.37157647623943 150.22289289903404
    vertex 1106.188543360245 212.82018047623984 155.29489301603397
    vertex 1104.0342643438962 212.8201804762394 150.22289289903404
  endloop
endfacet
facet normal 0.920417193161086 1.8367492309192248e-13 -0.39093757881977553
  outer loop
    vertex 1106.188543360245 212.82018047623984 155.29489301603397
    vertex 1104.034264343895 217.37157647623943 150.22289289903404
    vertex 1106.1885433602438 217.37157647623982 155.29489301603397
  endloop
endfacet
facet normal 0.9870229299212309 1.9696650832935803e-13 -0.16057937541823084
  outer loop
    vertex 1106.1885433602438 217.37157647623982 155.29489301603397
    vertex 1107.0434179025515 212.82018047624 160.54949544094015
    vertex 1106.188543360245 212.82018047623984 155.29489301603397
  endloop
endfacet
facet normal 0.9870229299212309 1.9696650832935803e-13 -0.16057937541823084
  outer loop
    vertex 1107.0434179025515 212.82018047624 160.54949544094015
    vertex 1106.1885433602438 217.37157647623982 155.29489301603397
    vertex 1107.0434179025508 217.37157647624002 160.54949544094015
  endloop
endfacet
facet normal 0.9960510920784658 1.987681337251177e-13 0.0887818786087327
  outer loop
    vertex 1107.0434179025515 212.82018047624 160.54949544094015
    vertex 1106.5729755709053 217.3715764762399 165.82742609005672
    vertex 1106.5729755709062 212.82018047623993 165.82742609005672
  endloop
endfacet
facet normal 0.9960510920784658 1.987681337251177e-13 0.0887818786087327
  outer loop
    vertex 1106.5729755709053 217.3715764762399 165.82742609005672
    vertex 1107.0434179025515 212.82018047624 160.54949544094015
    vertex 1107.0434179025508 217.37157647624002 160.54949544094015
  endloop
endfacet
facet normal -0.6169246339915696 -1.2311111259530735e-13 0.7870222334688951
  outer loop
    vertex 1072.6176474813683 212.8201804762331 173.60124315146638
    vertex 1076.7705059582388 217.37157647623397 176.8565523243348
    vertex 1072.6176474813674 217.37157647623312 173.60124315146638
  endloop
endfacet
facet normal -0.6169246339915696 -1.2311111259530735e-13 0.7870222334688951
  outer loop
    vertex 1076.7705059582388 217.37157647623397 176.8565523243348
    vertex 1072.6176474813683 212.8201804762331 173.60124315146638
    vertex 1076.7705059582397 212.82018047623396 176.8565523243348
  endloop
endfacet
facet normal -0.8913454122430409 -1.7787347005090672e-13 0.4533247799020961
  outer loop
    vertex 1066.2746148956078 212.82018047623185 166.12183736929137
    vertex 1064.1890185206569 217.37157647623138 162.02105390670692
    vertex 1064.189018520658 212.82018047623143 162.02105390670692
  endloop
endfacet
facet normal -0.8913454122430409 -1.7787347005090672e-13 0.4533247799020961
  outer loop
    vertex 1064.1890185206569 217.37157647623138 162.02105390670692
    vertex 1066.2746148956078 212.82018047623185 166.12183736929137
    vertex 1066.2746148956069 217.37157647623184 166.12183736929137
  endloop
endfacet
facet normal -0.9929808838273425 -1.9815545474802738e-13 0.11827495235031835
  outer loop
    vertex 1062.8772796949909 212.82018047623117 157.76849065989936
    vertex 1062.3610250888228 217.37157647623107 153.43425974350342
    vertex 1062.3610250888235 212.8201804762311 153.43425974350342
  endloop
endfacet
facet normal -0.9929808838273425 -1.9815545474802738e-13 0.11827495235031835
  outer loop
    vertex 1062.3610250888228 217.37157647623107 153.43425974350342
    vertex 1062.8772796949909 212.82018047623117 157.76849065989936
    vertex 1062.87727969499 217.37157647623116 157.76849065989936
  endloop
endfacet
facet normal -0.955573009214317 -1.9069048283786199e-13 0.29475451491214727
  outer loop
    vertex 1064.189018520658 212.82018047623143 162.02105390670692
    vertex 1062.87727969499 217.37157647623116 157.76849065989936
    vertex 1062.8772796949909 212.82018047623117 157.76849065989936
  endloop
endfacet
facet normal -0.955573009214317 -1.9069048283786199e-13 0.29475451491214727
  outer loop
    vertex 1062.87727969499 217.37157647623116 157.76849065989936
    vertex 1064.189018520658 212.82018047623143 162.02105390670692
    vertex 1064.1890185206569 217.37157647623138 162.02105390670692
  endloop
endfacet
facet normal -0.9118904498968718 -1.8197335892633346e-13 -0.41043368208138203
  outer loop
    vertex 1063.7357590472418 217.3715764762313 144.80679750562823
    vertex 1065.6040823393123 212.82018047623177 140.6558073658369
    vertex 1063.735759047243 212.8201804762314 144.80679750562823
  endloop
endfacet
facet normal -0.9118904498968718 -1.8197335892633346e-13 -0.41043368208138203
  outer loop
    vertex 1065.6040823393123 212.82018047623177 140.6558073658369
    vertex 1063.7357590472418 217.3715764762313 144.80679750562823
    vertex 1065.6040823393112 217.3715764762317 140.6558073658369
  endloop
endfacet
facet normal -0.9978138484194765 -1.9911990261619295e-13 -0.06608724462643438
  outer loop
    vertex 1062.3610250888228 217.37157647623107 153.43425974350342
    vertex 1062.64876620452 212.82018047623112 149.08981972902689
    vertex 1062.3610250888235 212.8201804762311 153.43425974350342
  endloop
endfacet
facet normal -0.9978138484194765 -1.9911990261619295e-13 -0.06608724462643438
  outer loop
    vertex 1062.64876620452 212.82018047623112 149.08981972902689
    vertex 1062.3610250888228 217.37157647623107 153.43425974350342
    vertex 1062.648766204519 217.37157647623113 149.08981972902689
  endloop
endfacet
facet normal 2.85049761572508e-14 -5.496190358729725e-30 -1.0
  outer loop
    vertex 1077.2940023393114 217.3715764762341 140.65580736583723
    vertex 1065.6040823393123 212.82018047623177 140.6558073658369
    vertex 1065.6040823393112 217.3715764762317 140.6558073658369
  endloop
endfacet
facet normal 2.85049761572508e-14 -5.496190358729725e-30 -1.0
  outer loop
    vertex 1065.6040823393123 212.82018047623177 140.6558073658369
    vertex 1077.2940023393114 217.3715764762341 140.65580736583723
    vertex 1077.2940023393123 212.82018047623407 140.65580736583723
  endloop
endfacet
facet normal -0.9692717266839832 -1.9342414632915384e-13 -0.24599251990873586
  outer loop
    vertex 1062.648766204519 217.37157647623113 149.08981972902689
    vertex 1063.735759047243 212.8201804762314 144.80679750562823
    vertex 1062.64876620452 212.82018047623112 149.08981972902689
  endloop
endfacet
facet normal -0.9692717266839832 -1.9342414632915384e-13 -0.24599251990873586
  outer loop
    vertex 1063.735759047243 212.8201804762314 144.80679750562823
    vertex 1062.648766204519 217.37157647623113 149.08981972902689
    vertex 1063.7357590472418 217.3715764762313 144.80679750562823
  endloop
endfacet
facet normal -0.8085144044696521 -1.6134403199233076e-13 0.5884763867523354
  outer loop
    vertex 1069.0996835412132 212.82018047623242 170.0032313300461
    vertex 1066.2746148956069 217.37157647623184 166.12183736929137
    vertex 1066.2746148956078 212.82018047623185 166.12183736929137
  endloop
endfacet
facet normal -0.8085144044696521 -1.6134403199233076e-13 0.5884763867523354
  outer loop
    vertex 1066.2746148956069 217.37157647623184 166.12183736929137
    vertex 1069.0996835412132 212.82018047623242 170.0032313300461
    vertex 1069.0996835412122 217.37157647623243 170.0032313300461
  endloop
endfacet
facet normal -0.7150158142651095 -1.426858121191849e-13 0.6991082787028077
  outer loop
    vertex 1072.6176474813683 212.8201804762331 173.60124315146638
    vertex 1069.0996835412122 217.37157647623243 170.0032313300461
    vertex 1069.0996835412132 212.82018047623242 170.0032313300461
  endloop
endfacet
facet normal -0.7150158142651095 -1.426858121191849e-13 0.6991082787028077
  outer loop
    vertex 1069.0996835412122 217.37157647623243 170.0032313300461
    vertex 1072.6176474813683 212.8201804762331 173.60124315146638
    vertex 1072.6176474813674 217.37157647623312 173.60124315146638
  endloop
endfacet
facet normal -0.5181378233886601 -1.0339759575228732e-13 0.8552971389956018
  outer loop
    vertex 1076.7705059582397 212.82018047623396 176.8565523243348
    vertex 1081.4897906921808 217.37157647623488 179.71548848641248
    vertex 1076.7705059582388 217.37157647623397 176.8565523243348
  endloop
endfacet
facet normal -0.5181378233886601 -1.0339759575228732e-13 0.8552971389956018
  outer loop
    vertex 1081.4897906921808 217.37157647623488 179.71548848641248
    vertex 1076.7705059582397 212.82018047623396 176.8565523243348
    vertex 1081.489790692182 212.82018047623487 179.71548848641248
  endloop
endfacet
facet normal -0.4207490568841327 -8.396306722473718e-14 0.9071770671324937
  outer loop
    vertex 1081.489790692182 212.82018047623487 179.71548848641248
    vertex 1086.6976947199441 217.3715764762359 182.130916287019
    vertex 1081.4897906921808 217.37157647623488 179.71548848641248
  endloop
endfacet
facet normal -0.4207490568841327 -8.396306722473718e-14 0.9071770671324937
  outer loop
    vertex 1086.6976947199441 217.3715764762359 182.130916287019
    vertex 1081.489790692182 212.82018047623487 179.71548848641248
    vertex 1086.6976947199453 212.82018047623592 182.130916287019
  endloop
endfacet
facet normal -0.3255969133199316 -6.497487058842351e-14 0.9455086726395125
  outer loop
    vertex 1086.6976947199453 212.82018047623592 182.130916287019
    vertex 1092.3083551999887 217.37157647623704 184.063012508716
    vertex 1086.6976947199441 217.3715764762359 182.130916287019
  endloop
endfacet
facet normal -0.3255969133199316 -6.497487058842351e-14 0.9455086726395125
  outer loop
    vertex 1092.3083551999887 217.37157647623704 184.063012508716
    vertex 1086.6976947199453 212.82018047623592 182.130916287019
    vertex 1092.3083551999896 212.82018047623708 184.063012508716
  endloop
endfacet
facet normal 0.5906389810819163 1.178656485682699e-13 0.8069359293193703
  outer loop
    vertex 1092.3083551999896 212.82018047623708 184.063012508716
    vertex 1097.5494074894355 217.37157647623812 180.2268098170762
    vertex 1092.3083551999887 217.37157647623704 184.063012508716
  endloop
endfacet
facet normal 0.5906389810819163 1.178656485682699e-13 0.8069359293193703
  outer loop
    vertex 1097.5494074894355 217.37157647623812 180.2268098170762
    vertex 1092.3083551999896 212.82018047623708 184.063012508716
    vertex 1097.5494074894361 212.8201804762381 180.2268098170762
  endloop
endfacet
facet normal 0.7237969022970836 1.4443813235062724e-13 0.6900130754015796
  outer loop
    vertex 1101.752919160272 212.82018047623893 175.81748942216925
    vertex 1097.5494074894355 217.37157647623812 180.2268098170762
    vertex 1097.5494074894361 212.8201804762381 180.2268098170762
  endloop
endfacet
facet normal 0.7237969022970836 1.4443813235062724e-13 0.6900130754015796
  outer loop
    vertex 1097.5494074894355 217.37157647623812 180.2268098170762
    vertex 1101.752919160272 212.82018047623893 175.81748942216925
    vertex 1101.7529191602712 217.3715764762389 175.81748942216925
  endloop
endfacet
facet normal 0.8473641777068276 1.690967436588478e-13 0.5310121941530458
  outer loop
    vertex 1104.7914761066263 212.82018047623953 170.9687037697616
    vertex 1101.7529191602712 217.3715764762389 175.81748942216925
    vertex 1101.752919160272 212.82018047623893 175.81748942216925
  endloop
endfacet
facet normal 0.8473641777068276 1.690967436588478e-13 0.5310121941530458
  outer loop
    vertex 1101.7529191602712 217.3715764762389 175.81748942216925
    vertex 1104.7914761066263 212.82018047623953 170.9687037697616
    vertex 1104.7914761066252 217.3715764762395 170.9687037697616
  endloop
endfacet
endsolid coin-bank
